# MagicaVoxel @ Ephtracy

# group
g bar

# material
mtllib bar.mtl
usemtl palette

# normals
vn -1 0 0
vn 1 0 0
vn 0 0 1
vn 0 0 -1
vn 0 -1 0
vn 0 1 0

# texcoords
vt 0.369141 0.5
vt 0.373047 0.5
vt 0.982422 0.5

# verts
v -60 0 40
v -60 0 26
v -60 2 40
v -60 2 26
v -60 32 40
v -60 32 24
v -60 36 40
v -60 36 24
v -58 2 38
v -58 2 28
v -58 4 38
v -58 4 28
v -56 4 36
v -56 4 30
v -56 32 36
v -56 32 30
v -22 8 36
v -22 8 35
v -22 8 31
v -22 8 30
v -22 16 36
v -22 16 35
v -22 16 31
v -22 16 30
v -22 20 36
v -22 20 35
v -22 20 31
v -22 20 30
v -22 28 36
v -22 28 35
v -22 28 31
v -22 28 30
v 16 8 36
v 16 8 35
v 16 8 31
v 16 8 30
v 16 16 36
v 16 16 35
v 16 16 31
v 16 16 30
v 16 20 36
v 16 20 35
v 16 20 31
v 16 20 30
v 16 28 36
v 16 28 35
v 16 28 31
v 16 28 30
v 44 32 24
v 44 32 -40
v 44 36 24
v 44 36 -40
v 46 0 26
v 46 0 -40
v 46 2 26
v 46 2 -40
v 48 2 28
v 48 2 -38
v 48 4 28
v 48 4 -38
v 48 8 31
v 48 8 30
v 48 16 31
v 48 16 30
v 48 20 31
v 48 20 30
v 48 28 31
v 48 28 30
v 50 4 30
v 50 4 -36
v 50 8 28
v 50 8 2
v 50 8 -2
v 50 8 -32
v 50 16 28
v 50 16 2
v 50 16 -2
v 50 16 -32
v 50 20 28
v 50 20 2
v 50 20 -2
v 50 20 -32
v 50 28 28
v 50 28 2
v 50 28 -2
v 50 28 -32
v 50 32 30
v 50 32 -36
v 51 8 28
v 51 8 2
v 51 8 -2
v 51 8 -32
v 51 16 28
v 51 16 2
v 51 16 -2
v 51 16 -32
v 51 20 28
v 51 20 2
v 51 20 -2
v 51 20 -32
v 51 28 28
v 51 28 2
v 51 28 -2
v 51 28 -32
v 52 8 36
v 52 8 35
v 52 16 36
v 52 16 35
v 52 20 36
v 52 20 35
v 52 28 36
v 52 28 35
v -52 8 36
v -52 8 35
v -52 8 31
v -52 8 30
v -52 16 36
v -52 16 35
v -52 16 31
v -52 16 30
v -52 20 36
v -52 20 35
v -52 20 31
v -52 20 30
v -52 28 36
v -52 28 35
v -52 28 31
v -52 28 30
v -18 8 31
v -18 8 30
v -18 16 31
v -18 16 30
v -18 20 31
v -18 20 30
v -18 28 31
v -18 28 30
v -16 8 36
v -16 8 35
v -16 16 36
v -16 16 35
v -16 20 36
v -16 20 35
v -16 28 36
v -16 28 35
v 20 8 31
v 20 8 30
v 20 16 31
v 20 16 30
v 20 20 31
v 20 20 30
v 20 28 31
v 20 28 30
v 22 8 36
v 22 8 35
v 22 16 36
v 22 16 35
v 22 20 36
v 22 20 35
v 22 28 36
v 22 28 35
v 55 8 32
v 55 8 2
v 55 8 -2
v 55 8 -32
v 55 16 32
v 55 16 2
v 55 16 -2
v 55 16 -32
v 55 20 32
v 55 20 2
v 55 20 -2
v 55 20 -32
v 55 28 32
v 55 28 2
v 55 28 -2
v 55 28 -32
v 56 4 36
v 56 4 -36
v 56 8 32
v 56 8 2
v 56 8 -2
v 56 8 -32
v 56 16 32
v 56 16 2
v 56 16 -2
v 56 16 -32
v 56 20 32
v 56 20 2
v 56 20 -2
v 56 20 -32
v 56 28 32
v 56 28 2
v 56 28 -2
v 56 28 -32
v 56 32 36
v 56 32 -36
v 58 2 38
v 58 2 -38
v 58 4 38
v 58 4 -38
v 60 0 40
v 60 0 -40
v 60 2 40
v 60 2 -40
v 60 32 40
v 60 32 -40
v 60 36 40
v 60 36 -40
v -60 0 40
v -60 2 40
v -60 32 40
v -60 36 40
v 60 0 40
v 60 2 40
v 60 32 40
v 60 36 40
v -58 2 38
v -58 4 38
v 58 2 38
v 58 4 38
v -56 4 36
v -56 32 36
v -52 8 36
v -52 16 36
v -52 20 36
v -52 28 36
v -22 8 36
v -22 16 36
v -22 20 36
v -22 28 36
v -16 8 36
v -16 16 36
v -16 20 36
v -16 28 36
v 16 8 36
v 16 16 36
v 16 20 36
v 16 28 36
v 22 8 36
v 22 16 36
v 22 20 36
v 22 28 36
v 52 8 36
v 52 16 36
v 52 20 36
v 52 28 36
v 56 4 36
v 56 32 36
v -52 8 35
v -52 16 35
v -52 20 35
v -52 28 35
v -22 8 35
v -22 16 35
v -22 20 35
v -22 28 35
v -16 8 35
v -16 16 35
v -16 20 35
v -16 28 35
v 16 8 35
v 16 16 35
v 16 20 35
v 16 28 35
v 22 8 35
v 22 16 35
v 22 20 35
v 22 28 35
v 52 8 35
v 52 16 35
v 52 20 35
v 52 28 35
v 50 8 2
v 50 16 2
v 50 20 2
v 50 28 2
v 51 8 2
v 51 16 2
v 51 20 2
v 51 28 2
v 55 8 2
v 55 16 2
v 55 20 2
v 55 28 2
v 56 8 2
v 56 16 2
v 56 20 2
v 56 28 2
v 50 8 -32
v 50 16 -32
v 50 20 -32
v 50 28 -32
v 51 8 -32
v 51 16 -32
v 51 20 -32
v 51 28 -32
v 55 8 -32
v 55 16 -32
v 55 20 -32
v 55 28 -32
v 56 8 -32
v 56 16 -32
v 56 20 -32
v 56 28 -32
v 55 8 32
v 55 16 32
v 55 20 32
v 55 28 32
v 56 8 32
v 56 16 32
v 56 20 32
v 56 28 32
v -52 8 31
v -52 16 31
v -52 20 31
v -52 28 31
v -22 8 31
v -22 16 31
v -22 20 31
v -22 28 31
v -18 8 31
v -18 16 31
v -18 20 31
v -18 28 31
v 16 8 31
v 16 16 31
v 16 20 31
v 16 28 31
v 20 8 31
v 20 16 31
v 20 20 31
v 20 28 31
v 22 8 31
v 22 16 31
v 48 8 31
v 48 16 31
v 48 20 31
v 48 28 31
v -56 4 30
v -56 32 30
v -52 8 30
v -52 16 30
v -52 20 30
v -52 28 30
v -22 8 30
v -22 16 30
v -22 20 30
v -22 28 30
v -18 8 30
v -18 16 30
v -18 20 30
v -18 28 30
v 16 8 30
v 16 16 30
v 16 20 30
v 16 28 30
v 20 8 30
v 20 16 30
v 20 20 30
v 20 28 30
v 48 8 30
v 48 16 30
v 48 20 30
v 48 28 30
v 50 4 30
v 50 32 30
v -58 2 28
v -58 4 28
v 48 2 28
v 48 4 28
v 50 8 28
v 50 16 28
v 50 20 28
v 50 28 28
v 51 8 28
v 51 16 28
v 51 20 28
v 51 28 28
v -60 0 26
v -60 2 26
v 46 0 26
v 46 2 26
v -60 32 24
v -60 36 24
v 44 32 24
v 44 36 24
v 50 8 -2
v 50 16 -2
v 50 20 -2
v 50 28 -2
v 51 8 -2
v 51 16 -2
v 51 20 -2
v 51 28 -2
v 55 8 -2
v 55 16 -2
v 55 20 -2
v 55 28 -2
v 56 8 -2
v 56 16 -2
v 56 20 -2
v 56 28 -2
v 50 4 -36
v 50 32 -36
v 56 4 -36
v 56 32 -36
v 48 2 -38
v 48 4 -38
v 58 2 -38
v 58 4 -38
v 44 32 -40
v 44 36 -40
v 46 0 -40
v 46 2 -40
v 60 0 -40
v 60 2 -40
v 60 32 -40
v 60 36 -40
v -60 0 40
v 60 0 40
v -60 0 26
v 46 0 26
v 46 0 -40
v 60 0 -40
v -52 16 36
v -22 16 36
v -16 16 36
v 16 16 36
v 22 16 36
v 52 16 36
v -52 16 35
v -22 16 35
v -16 16 35
v 16 16 35
v 22 16 35
v 52 16 35
v 55 16 32
v 56 16 32
v -52 16 31
v -22 16 31
v -18 16 31
v 16 16 31
v 20 16 31
v 22 16 31
v 48 16 31
v -52 16 30
v -22 16 30
v -18 16 30
v 16 16 30
v 20 16 30
v 48 16 30
v 50 16 28
v 51 16 28
v 50 16 2
v 51 16 2
v 55 16 2
v 56 16 2
v 50 16 -2
v 51 16 -2
v 55 16 -2
v 56 16 -2
v 50 16 -32
v 51 16 -32
v 55 16 -32
v 56 16 -32
v -52 28 36
v -22 28 36
v -16 28 36
v 16 28 36
v 22 28 36
v 52 28 36
v -52 28 35
v -22 28 35
v -16 28 35
v 16 28 35
v 22 28 35
v 52 28 35
v 55 28 32
v 56 28 32
v -52 28 31
v -22 28 31
v -18 28 31
v 16 28 31
v 20 28 31
v 48 28 31
v -52 28 30
v -22 28 30
v -18 28 30
v 16 28 30
v 20 28 30
v 48 28 30
v 50 28 28
v 51 28 28
v 50 28 2
v 51 28 2
v 55 28 2
v 56 28 2
v 50 28 -2
v 51 28 -2
v 55 28 -2
v 56 28 -2
v 50 28 -32
v 51 28 -32
v 55 28 -32
v 56 28 -32
v -60 32 40
v 60 32 40
v -56 32 36
v 56 32 36
v -56 32 30
v 50 32 30
v -60 32 24
v 44 32 24
v 50 32 -36
v 56 32 -36
v 44 32 -40
v 60 32 -40
v -60 2 40
v 60 2 40
v -58 2 38
v 58 2 38
v -58 2 28
v 48 2 28
v -60 2 26
v 46 2 26
v 48 2 -38
v 58 2 -38
v 46 2 -40
v 60 2 -40
v -58 4 38
v 58 4 38
v -56 4 36
v 56 4 36
v -56 4 30
v 50 4 30
v -58 4 28
v 48 4 28
v 50 4 -36
v 56 4 -36
v 48 4 -38
v 58 4 -38
v -52 8 36
v -22 8 36
v -16 8 36
v 16 8 36
v 22 8 36
v 52 8 36
v -52 8 35
v -22 8 35
v -16 8 35
v 16 8 35
v 22 8 35
v 52 8 35
v 55 8 32
v 56 8 32
v -52 8 31
v -22 8 31
v -18 8 31
v 16 8 31
v 20 8 31
v 22 8 31
v 48 8 31
v -52 8 30
v -22 8 30
v -18 8 30
v 16 8 30
v 20 8 30
v 48 8 30
v 50 8 28
v 51 8 28
v 50 8 2
v 51 8 2
v 55 8 2
v 56 8 2
v 50 8 -2
v 51 8 -2
v 55 8 -2
v 56 8 -2
v 50 8 -32
v 51 8 -32
v 55 8 -32
v 56 8 -32
v -52 20 36
v -22 20 36
v -16 20 36
v 16 20 36
v 22 20 36
v 52 20 36
v -52 20 35
v -22 20 35
v -16 20 35
v 16 20 35
v 22 20 35
v 52 20 35
v 55 20 32
v 56 20 32
v -52 20 31
v -22 20 31
v -18 20 31
v 16 20 31
v 20 20 31
v 48 20 31
v -52 20 30
v -22 20 30
v -18 20 30
v 16 20 30
v 20 20 30
v 48 20 30
v 50 20 28
v 51 20 28
v 50 20 2
v 51 20 2
v 55 20 2
v 56 20 2
v 50 20 -2
v 51 20 -2
v 55 20 -2
v 56 20 -2
v 50 20 -32
v 51 20 -32
v 55 20 -32
v 56 20 -32
v -60 36 40
v 60 36 40
v -60 36 24
v 44 36 24
v 44 36 -40
v 60 36 -40

# faces
f 3/3/1 2/3/1 1/3/1
f 4/3/1 2/3/1 3/3/1
f 7/2/1 6/2/1 5/2/1
f 8/2/1 6/2/1 7/2/1
f 11/3/1 10/3/1 9/3/1
f 12/3/1 10/3/1 11/3/1
f 15/3/1 14/3/1 13/3/1
f 16/3/1 14/3/1 15/3/1
f 21/3/1 18/3/1 17/3/1
f 22/3/1 18/3/1 21/3/1
f 23/3/1 20/3/1 19/3/1
f 24/3/1 20/3/1 23/3/1
f 29/3/1 26/3/1 25/3/1
f 30/3/1 26/3/1 29/3/1
f 31/3/1 28/3/1 27/3/1
f 32/3/1 28/3/1 31/3/1
f 37/3/1 34/3/1 33/3/1
f 38/3/1 34/3/1 37/3/1
f 39/3/1 36/3/1 35/3/1
f 40/3/1 36/3/1 39/3/1
f 45/3/1 42/3/1 41/3/1
f 46/3/1 42/3/1 45/3/1
f 47/3/1 44/3/1 43/3/1
f 48/3/1 44/3/1 47/3/1
f 51/2/1 50/2/1 49/2/1
f 52/2/1 50/2/1 51/2/1
f 55/3/1 54/3/1 53/3/1
f 56/3/1 54/3/1 55/3/1
f 59/3/1 58/3/1 57/3/1
f 60/3/1 58/3/1 59/3/1
f 63/3/1 62/3/1 61/3/1
f 64/3/1 62/3/1 63/3/1
f 67/3/1 66/3/1 65/3/1
f 68/3/1 66/3/1 67/3/1
f 71/3/1 70/3/1 69/3/1
f 72/3/1 70/3/1 71/3/1
f 73/3/1 70/3/1 72/3/1
f 74/3/1 70/3/1 73/3/1
f 75/3/1 71/3/1 69/3/1
f 76/3/1 73/3/1 72/3/1
f 77/3/1 73/3/1 76/3/1
f 78/3/1 70/3/1 74/3/1
f 79/3/1 77/3/1 76/3/1
f 79/3/1 78/3/1 77/3/1
f 79/3/1 75/3/1 69/3/1
f 79/3/1 76/3/1 75/3/1
f 80/3/1 78/3/1 79/3/1
f 81/3/1 78/3/1 80/3/1
f 82/3/1 70/3/1 78/3/1
f 82/3/1 78/3/1 81/3/1
f 83/3/1 79/3/1 69/3/1
f 84/3/1 81/3/1 80/3/1
f 85/3/1 81/3/1 84/3/1
f 86/3/1 70/3/1 82/3/1
f 87/3/1 83/3/1 69/3/1
f 87/3/1 86/3/1 85/3/1
f 87/3/1 85/3/1 84/3/1
f 87/3/1 84/3/1 83/3/1
f 88/3/1 70/3/1 86/3/1
f 88/3/1 86/3/1 87/3/1
f 93/1/1 90/1/1 89/1/1
f 94/1/1 90/1/1 93/1/1
f 95/1/1 92/1/1 91/1/1
f 96/1/1 92/1/1 95/1/1
f 101/1/1 98/1/1 97/1/1
f 102/1/1 98/1/1 101/1/1
f 103/1/1 100/1/1 99/1/1
f 104/1/1 100/1/1 103/1/1
f 107/3/1 106/3/1 105/3/1
f 108/3/1 106/3/1 107/3/1
f 111/3/1 110/3/1 109/3/1
f 112/3/1 110/3/1 111/3/1
f 113/3/2 114/3/2 117/3/2
f 117/3/2 114/3/2 118/3/2
f 115/3/2 116/3/2 119/3/2
f 119/3/2 116/3/2 120/3/2
f 121/3/2 122/3/2 125/3/2
f 125/3/2 122/3/2 126/3/2
f 123/3/2 124/3/2 127/3/2
f 127/3/2 124/3/2 128/3/2
f 129/3/2 130/3/2 131/3/2
f 131/3/2 130/3/2 132/3/2
f 133/3/2 134/3/2 135/3/2
f 135/3/2 134/3/2 136/3/2
f 137/3/2 138/3/2 139/3/2
f 139/3/2 138/3/2 140/3/2
f 141/3/2 142/3/2 143/3/2
f 143/3/2 142/3/2 144/3/2
f 145/3/2 146/3/2 147/3/2
f 147/3/2 146/3/2 148/3/2
f 149/3/2 150/3/2 151/3/2
f 151/3/2 150/3/2 152/3/2
f 153/3/2 154/3/2 155/3/2
f 155/3/2 154/3/2 156/3/2
f 157/3/2 158/3/2 159/3/2
f 159/3/2 158/3/2 160/3/2
f 161/1/2 162/1/2 165/1/2
f 165/1/2 162/1/2 166/1/2
f 163/1/2 164/1/2 167/1/2
f 167/1/2 164/1/2 168/1/2
f 169/1/2 170/1/2 173/1/2
f 173/1/2 170/1/2 174/1/2
f 171/1/2 172/1/2 175/1/2
f 175/1/2 172/1/2 176/1/2
f 177/3/2 178/3/2 179/3/2
f 179/3/2 178/3/2 180/3/2
f 180/3/2 178/3/2 181/3/2
f 181/3/2 178/3/2 182/3/2
f 177/3/2 179/3/2 183/3/2
f 180/3/2 181/3/2 184/3/2
f 184/3/2 181/3/2 185/3/2
f 182/3/2 178/3/2 186/3/2
f 184/3/2 185/3/2 187/3/2
f 185/3/2 186/3/2 187/3/2
f 177/3/2 183/3/2 187/3/2
f 183/3/2 184/3/2 187/3/2
f 187/3/2 186/3/2 188/3/2
f 188/3/2 186/3/2 189/3/2
f 186/3/2 178/3/2 190/3/2
f 189/3/2 186/3/2 190/3/2
f 177/3/2 187/3/2 191/3/2
f 188/3/2 189/3/2 192/3/2
f 192/3/2 189/3/2 193/3/2
f 190/3/2 178/3/2 194/3/2
f 177/3/2 191/3/2 195/3/2
f 193/3/2 194/3/2 195/3/2
f 192/3/2 193/3/2 195/3/2
f 191/3/2 192/3/2 195/3/2
f 194/3/2 178/3/2 196/3/2
f 195/3/2 194/3/2 196/3/2
f 197/3/2 198/3/2 199/3/2
f 199/3/2 198/3/2 200/3/2
f 201/3/2 202/3/2 203/3/2
f 203/3/2 202/3/2 204/3/2
f 205/2/2 206/2/2 207/2/2
f 207/2/2 206/2/2 208/2/2
f 213/3/3 210/3/3 209/3/3
f 214/3/3 210/3/3 213/3/3
f 215/2/3 212/2/3 211/2/3
f 216/2/3 212/2/3 215/2/3
f 219/3/3 218/3/3 217/3/3
f 220/3/3 218/3/3 219/3/3
f 223/3/3 222/3/3 221/3/3
f 224/3/3 222/3/3 223/3/3
f 225/3/3 222/3/3 224/3/3
f 226/3/3 222/3/3 225/3/3
f 227/3/3 223/3/3 221/3/3
f 228/3/3 225/3/3 224/3/3
f 229/3/3 225/3/3 228/3/3
f 230/3/3 222/3/3 226/3/3
f 231/3/3 229/3/3 228/3/3
f 231/3/3 230/3/3 229/3/3
f 231/3/3 227/3/3 221/3/3
f 231/3/3 228/3/3 227/3/3
f 232/3/3 230/3/3 231/3/3
f 233/3/3 230/3/3 232/3/3
f 234/3/3 222/3/3 230/3/3
f 234/3/3 230/3/3 233/3/3
f 235/3/3 231/3/3 221/3/3
f 236/3/3 233/3/3 232/3/3
f 237/3/3 233/3/3 236/3/3
f 238/3/3 222/3/3 234/3/3
f 239/3/3 235/3/3 221/3/3
f 239/3/3 238/3/3 237/3/3
f 239/3/3 237/3/3 236/3/3
f 239/3/3 236/3/3 235/3/3
f 240/3/3 238/3/3 239/3/3
f 241/3/3 238/3/3 240/3/3
f 242/3/3 222/3/3 238/3/3
f 242/3/3 238/3/3 241/3/3
f 243/3/3 239/3/3 221/3/3
f 244/3/3 241/3/3 240/3/3
f 245/3/3 241/3/3 244/3/3
f 246/3/3 222/3/3 242/3/3
f 247/3/3 243/3/3 221/3/3
f 247/3/3 246/3/3 245/3/3
f 247/3/3 245/3/3 244/3/3
f 247/3/3 244/3/3 243/3/3
f 248/3/3 222/3/3 246/3/3
f 248/3/3 246/3/3 247/3/3
f 253/1/3 250/1/3 249/1/3
f 254/1/3 250/1/3 253/1/3
f 255/1/3 252/1/3 251/1/3
f 256/1/3 252/1/3 255/1/3
f 261/1/3 258/1/3 257/1/3
f 262/1/3 258/1/3 261/1/3
f 263/1/3 260/1/3 259/1/3
f 264/1/3 260/1/3 263/1/3
f 269/1/3 266/1/3 265/1/3
f 270/1/3 266/1/3 269/1/3
f 271/1/3 268/1/3 267/1/3
f 272/1/3 268/1/3 271/1/3
f 277/3/3 274/3/3 273/3/3
f 278/3/3 274/3/3 277/3/3
f 279/3/3 276/3/3 275/3/3
f 280/3/3 276/3/3 279/3/3
f 285/3/3 282/3/3 281/3/3
f 286/3/3 282/3/3 285/3/3
f 287/3/3 284/3/3 283/3/3
f 288/3/3 284/3/3 287/3/3
f 293/3/3 290/3/3 289/3/3
f 294/3/3 290/3/3 293/3/3
f 295/3/3 292/3/3 291/3/3
f 296/3/3 292/3/3 295/3/3
f 301/3/3 298/3/3 297/3/3
f 302/3/3 298/3/3 301/3/3
f 303/3/3 300/3/3 299/3/3
f 304/3/3 300/3/3 303/3/3
f 305/3/4 306/3/4 309/3/4
f 309/3/4 306/3/4 310/3/4
f 307/3/4 308/3/4 311/3/4
f 311/3/4 308/3/4 312/3/4
f 313/1/4 314/1/4 317/1/4
f 317/1/4 314/1/4 318/1/4
f 315/1/4 316/1/4 319/1/4
f 319/1/4 316/1/4 320/1/4
f 321/1/4 322/1/4 325/1/4
f 325/1/4 322/1/4 326/1/4
f 323/1/4 324/1/4 327/1/4
f 327/1/4 324/1/4 328/1/4
f 329/3/4 330/3/4 333/3/4
f 333/3/4 330/3/4 334/3/4
f 333/1/4 334/1/4 335/1/4
f 335/1/4 334/1/4 336/1/4
f 331/1/4 332/1/4 337/1/4
f 337/1/4 332/1/4 338/1/4
f 339/3/4 340/3/4 341/3/4
f 341/3/4 340/3/4 342/3/4
f 342/3/4 340/3/4 343/3/4
f 343/3/4 340/3/4 344/3/4
f 339/3/4 341/3/4 345/3/4
f 342/3/4 343/3/4 346/3/4
f 346/3/4 343/3/4 347/3/4
f 344/3/4 340/3/4 348/3/4
f 346/3/4 347/3/4 349/3/4
f 347/3/4 348/3/4 349/3/4
f 339/3/4 345/3/4 349/3/4
f 345/3/4 346/3/4 349/3/4
f 349/3/4 348/3/4 350/3/4
f 350/3/4 348/3/4 351/3/4
f 348/3/4 340/3/4 352/3/4
f 351/3/4 348/3/4 352/3/4
f 339/3/4 349/3/4 353/3/4
f 350/3/4 351/3/4 354/3/4
f 354/3/4 351/3/4 355/3/4
f 352/3/4 340/3/4 356/3/4
f 339/3/4 353/3/4 357/3/4
f 355/3/4 356/3/4 357/3/4
f 354/3/4 355/3/4 357/3/4
f 353/3/4 354/3/4 357/3/4
f 357/3/4 356/3/4 358/3/4
f 358/3/4 356/3/4 359/3/4
f 356/3/4 340/3/4 360/3/4
f 359/3/4 356/3/4 360/3/4
f 339/3/4 357/3/4 361/3/4
f 358/3/4 359/3/4 362/3/4
f 362/3/4 359/3/4 363/3/4
f 360/3/4 340/3/4 364/3/4
f 339/3/4 361/3/4 365/3/4
f 363/3/4 364/3/4 365/3/4
f 362/3/4 363/3/4 365/3/4
f 361/3/4 362/3/4 365/3/4
f 364/3/4 340/3/4 366/3/4
f 365/3/4 364/3/4 366/3/4
f 367/3/4 368/3/4 369/3/4
f 369/3/4 368/3/4 370/3/4
f 371/3/4 372/3/4 375/3/4
f 375/3/4 372/3/4 376/3/4
f 373/3/4 374/3/4 377/3/4
f 377/3/4 374/3/4 378/3/4
f 379/3/4 380/3/4 381/3/4
f 381/3/4 380/3/4 382/3/4
f 383/2/4 384/2/4 385/2/4
f 385/2/4 384/2/4 386/2/4
f 387/3/4 388/3/4 391/3/4
f 391/3/4 388/3/4 392/3/4
f 389/3/4 390/3/4 393/3/4
f 393/3/4 390/3/4 394/3/4
f 395/3/4 396/3/4 399/3/4
f 399/3/4 396/3/4 400/3/4
f 397/3/4 398/3/4 401/3/4
f 401/3/4 398/3/4 402/3/4
f 403/3/4 404/3/4 405/3/4
f 405/3/4 404/3/4 406/3/4
f 407/3/4 408/3/4 409/3/4
f 409/3/4 408/3/4 410/3/4
f 413/3/4 414/3/4 415/3/4
f 415/3/4 414/3/4 416/3/4
f 411/2/4 412/2/4 417/2/4
f 417/2/4 412/2/4 418/2/4
f 421/3/5 420/3/5 419/3/5
f 422/3/5 420/3/5 421/3/5
f 423/3/5 420/3/5 422/3/5
f 424/3/5 420/3/5 423/3/5
f 431/3/5 426/3/5 425/3/5
f 432/3/5 426/3/5 431/3/5
f 433/3/5 428/3/5 427/3/5
f 434/3/5 428/3/5 433/3/5
f 435/3/5 430/3/5 429/3/5
f 436/3/5 430/3/5 435/3/5
f 446/3/5 440/3/5 439/3/5
f 447/3/5 440/3/5 446/3/5
f 448/3/5 442/3/5 441/3/5
f 449/3/5 442/3/5 448/3/5
f 450/3/5 445/3/5 444/3/5
f 450/3/5 444/3/5 443/3/5
f 451/3/5 445/3/5 450/3/5
f 454/3/5 453/3/5 452/3/5
f 455/3/5 453/3/5 454/3/5
f 456/3/5 438/3/5 437/3/5
f 457/3/5 438/3/5 456/3/5
f 462/3/5 459/3/5 458/3/5
f 463/3/5 459/3/5 462/3/5
f 464/3/5 461/3/5 460/3/5
f 465/3/5 461/3/5 464/3/5
f 472/3/5 467/3/5 466/3/5
f 473/3/5 467/3/5 472/3/5
f 474/3/5 469/3/5 468/3/5
f 475/3/5 469/3/5 474/3/5
f 476/3/5 471/3/5 470/3/5
f 477/3/5 471/3/5 476/3/5
f 486/3/5 481/3/5 480/3/5
f 487/3/5 481/3/5 486/3/5
f 488/3/5 483/3/5 482/3/5
f 489/3/5 483/3/5 488/3/5
f 490/3/5 485/3/5 484/3/5
f 491/3/5 485/3/5 490/3/5
f 494/3/5 493/3/5 492/3/5
f 495/3/5 493/3/5 494/3/5
f 496/3/5 479/3/5 478/3/5
f 497/3/5 479/3/5 496/3/5
f 502/3/5 499/3/5 498/3/5
f 503/3/5 499/3/5 502/3/5
f 504/3/5 501/3/5 500/3/5
f 505/3/5 501/3/5 504/3/5
f 508/2/5 507/2/5 506/2/5
f 509/2/5 507/2/5 508/2/5
f 510/2/5 508/2/5 506/2/5
f 512/2/5 510/2/5 506/2/5
f 512/2/5 511/2/5 510/2/5
f 513/2/5 511/2/5 512/2/5
f 514/2/5 511/2/5 513/2/5
f 515/2/5 507/2/5 509/2/5
f 516/2/5 514/2/5 513/2/5
f 516/2/5 515/2/5 514/2/5
f 517/2/5 507/2/5 515/2/5
f 517/2/5 515/2/5 516/2/5
f 518/3/6 519/3/6 520/3/6
f 520/3/6 519/3/6 521/3/6
f 518/3/6 520/3/6 522/3/6
f 518/3/6 522/3/6 524/3/6
f 522/3/6 523/3/6 524/3/6
f 524/3/6 523/3/6 525/3/6
f 525/3/6 523/3/6 526/3/6
f 521/3/6 519/3/6 527/3/6
f 525/3/6 526/3/6 528/3/6
f 526/3/6 527/3/6 528/3/6
f 527/3/6 519/3/6 529/3/6
f 528/3/6 527/3/6 529/3/6
f 530/3/6 531/3/6 532/3/6
f 532/3/6 531/3/6 533/3/6
f 530/3/6 532/3/6 534/3/6
f 530/3/6 534/3/6 536/3/6
f 534/3/6 535/3/6 536/3/6
f 536/3/6 535/3/6 537/3/6
f 537/3/6 535/3/6 538/3/6
f 533/3/6 531/3/6 539/3/6
f 537/3/6 538/3/6 540/3/6
f 538/3/6 539/3/6 540/3/6
f 539/3/6 531/3/6 541/3/6
f 540/3/6 539/3/6 541/3/6
f 542/3/6 543/3/6 548/3/6
f 548/3/6 543/3/6 549/3/6
f 544/3/6 545/3/6 550/3/6
f 550/3/6 545/3/6 551/3/6
f 546/3/6 547/3/6 552/3/6
f 552/3/6 547/3/6 553/3/6
f 556/3/6 557/3/6 563/3/6
f 563/3/6 557/3/6 564/3/6
f 558/3/6 559/3/6 565/3/6
f 565/3/6 559/3/6 566/3/6
f 561/3/6 562/3/6 567/3/6
f 560/3/6 561/3/6 567/3/6
f 567/3/6 562/3/6 568/3/6
f 569/3/6 570/3/6 571/3/6
f 571/3/6 570/3/6 572/3/6
f 554/3/6 555/3/6 573/3/6
f 573/3/6 555/3/6 574/3/6
f 575/3/6 576/3/6 579/3/6
f 579/3/6 576/3/6 580/3/6
f 577/3/6 578/3/6 581/3/6
f 581/3/6 578/3/6 582/3/6
f 583/3/6 584/3/6 589/3/6
f 589/3/6 584/3/6 590/3/6
f 585/3/6 586/3/6 591/3/6
f 591/3/6 586/3/6 592/3/6
f 587/3/6 588/3/6 593/3/6
f 593/3/6 588/3/6 594/3/6
f 597/3/6 598/3/6 603/3/6
f 603/3/6 598/3/6 604/3/6
f 599/3/6 600/3/6 605/3/6
f 605/3/6 600/3/6 606/3/6
f 601/3/6 602/3/6 607/3/6
f 607/3/6 602/3/6 608/3/6
f 609/3/6 610/3/6 611/3/6
f 611/3/6 610/3/6 612/3/6
f 595/3/6 596/3/6 613/3/6
f 613/3/6 596/3/6 614/3/6
f 615/3/6 616/3/6 619/3/6
f 619/3/6 616/3/6 620/3/6
f 617/3/6 618/3/6 621/3/6
f 621/3/6 618/3/6 622/3/6
f 623/2/6 624/2/6 625/2/6
f 625/2/6 624/2/6 626/2/6
f 626/2/6 624/2/6 627/2/6
f 627/2/6 624/2/6 628/2/6
