# MagicaVoxel @ Ephtracy

# group
g chair2

# material
mtllib chair2.mtl
usemtl palette

# normals
vn -1 0 0
vn 1 0 0
vn 0 0 1
vn 0 0 -1
vn 0 -1 0
vn 0 1 0

# texcoords
vt 0.970703 0.5
vt 0.982422 0.5
vt 0.990234 0.5

# verts
v -5 0 4
v -5 0 -3
v -5 1 4
v -5 1 -3
v -5 22 -4
v -5 22 -5
v -5 23 5
v -5 23 -4
v -5 24 4
v -5 24 -5
v -5 27 5
v -5 27 4
v -4 0 5
v -4 0 4
v -4 0 -3
v -4 0 -4
v -4 1 5
v -4 1 4
v -4 1 -3
v -4 1 -4
v -2 1 1
v -2 1 -0
v -2 23 1
v -2 23 -0
v -1 1 2
v -1 1 1
v -1 1 -0
v -1 1 -1
v -1 23 2
v -1 23 1
v -1 23 -0
v -1 23 -1
v 1 1 2
v 1 1 1
v 1 1 -0
v 1 1 -1
v 1 23 2
v 1 23 1
v 1 23 -0
v 1 23 -1
v 2 1 1
v 2 1 -0
v 2 23 1
v 2 23 -0
v 4 0 5
v 4 0 4
v 4 0 -3
v 4 0 -4
v 4 1 5
v 4 1 4
v 4 1 -3
v 4 1 -4
v 5 0 4
v 5 0 -3
v 5 1 4
v 5 1 -3
v 5 22 -4
v 5 22 -5
v 5 23 5
v 5 23 -4
v 5 24 4
v 5 24 -5
v 5 27 5
v 5 27 4
v -5 23 5
v -5 27 5
v -4 0 5
v -4 1 5
v 4 0 5
v 4 1 5
v 5 23 5
v 5 27 5
v -5 0 4
v -5 1 4
v -4 0 4
v -4 1 4
v 4 0 4
v 4 1 4
v 5 0 4
v 5 1 4
v -1 1 2
v -1 23 2
v 1 1 2
v 1 23 2
v -2 1 1
v -2 23 1
v -1 1 1
v -1 23 1
v 1 1 1
v 1 23 1
v 2 1 1
v 2 23 1
v -5 22 -4
v -5 23 -4
v 5 22 -4
v 5 23 -4
v -5 24 4
v -5 27 4
v 5 24 4
v 5 27 4
v -2 1 -0
v -2 23 -0
v -1 1 -0
v -1 23 -0
v 1 1 -0
v 1 23 -0
v 2 1 -0
v 2 23 -0
v -1 1 -1
v -1 23 -1
v 1 1 -1
v 1 23 -1
v -5 0 -3
v -5 1 -3
v -4 0 -3
v -4 1 -3
v 4 0 -3
v 4 1 -3
v 5 0 -3
v 5 1 -3
v -4 0 -4
v -4 1 -4
v 4 0 -4
v 4 1 -4
v -5 22 -5
v -5 24 -5
v 5 22 -5
v 5 24 -5
v -4 0 5
v 4 0 5
v -5 0 4
v -4 0 4
v 4 0 4
v 5 0 4
v -5 0 -3
v -4 0 -3
v 4 0 -3
v 5 0 -3
v -4 0 -4
v 4 0 -4
v -5 22 -4
v 5 22 -4
v -5 22 -5
v 5 22 -5
v -5 23 5
v 5 23 5
v -1 23 2
v 1 23 2
v -2 23 1
v -1 23 1
v 1 23 1
v 2 23 1
v -2 23 -0
v -1 23 -0
v 1 23 -0
v 2 23 -0
v -1 23 -1
v 1 23 -1
v -5 23 -4
v 5 23 -4
v -4 1 5
v 4 1 5
v -5 1 4
v -4 1 4
v 4 1 4
v 5 1 4
v -1 1 2
v 1 1 2
v -2 1 1
v -1 1 1
v 1 1 1
v 2 1 1
v -2 1 -0
v -1 1 -0
v 1 1 -0
v 2 1 -0
v -1 1 -1
v 1 1 -1
v -5 1 -3
v -4 1 -3
v 4 1 -3
v 5 1 -3
v -4 1 -4
v 4 1 -4
v -5 24 4
v 5 24 4
v -5 24 -5
v 5 24 -5
v -5 27 5
v 5 27 5
v -5 27 4
v 5 27 4

# faces
f 3/3/1 2/3/1 1/3/1
f 4/3/1 2/3/1 3/3/1
f 8/2/1 6/2/1 5/2/1
f 9/2/1 8/2/1 7/2/1
f 10/2/1 6/2/1 8/2/1
f 10/2/1 8/2/1 9/2/1
f 11/2/1 9/2/1 7/2/1
f 12/2/1 9/2/1 11/2/1
f 17/3/1 14/3/1 13/3/1
f 18/3/1 14/3/1 17/3/1
f 19/3/1 16/3/1 15/3/1
f 20/3/1 16/3/1 19/3/1
f 23/1/1 22/1/1 21/1/1
f 24/1/1 22/1/1 23/1/1
f 29/1/1 26/1/1 25/1/1
f 30/1/1 26/1/1 29/1/1
f 31/1/1 28/1/1 27/1/1
f 32/1/1 28/1/1 31/1/1
f 33/1/2 34/1/2 37/1/2
f 37/1/2 34/1/2 38/1/2
f 35/1/2 36/1/2 39/1/2
f 39/1/2 36/1/2 40/1/2
f 41/1/2 42/1/2 43/1/2
f 43/1/2 42/1/2 44/1/2
f 45/3/2 46/3/2 49/3/2
f 49/3/2 46/3/2 50/3/2
f 47/3/2 48/3/2 51/3/2
f 51/3/2 48/3/2 52/3/2
f 53/3/2 54/3/2 55/3/2
f 55/3/2 54/3/2 56/3/2
f 57/2/2 58/2/2 60/2/2
f 59/2/2 60/2/2 61/2/2
f 60/2/2 58/2/2 62/2/2
f 61/2/2 60/2/2 62/2/2
f 59/2/2 61/2/2 63/2/2
f 63/2/2 61/2/2 64/2/2
f 69/3/3 68/3/3 67/3/3
f 70/3/3 68/3/3 69/3/3
f 71/2/3 66/2/3 65/2/3
f 72/2/3 66/2/3 71/2/3
f 75/3/3 74/3/3 73/3/3
f 76/3/3 74/3/3 75/3/3
f 79/3/3 78/3/3 77/3/3
f 80/3/3 78/3/3 79/3/3
f 83/1/3 82/1/3 81/1/3
f 84/1/3 82/1/3 83/1/3
f 87/1/3 86/1/3 85/1/3
f 88/1/3 86/1/3 87/1/3
f 91/1/3 90/1/3 89/1/3
f 92/1/3 90/1/3 91/1/3
f 95/2/3 94/2/3 93/2/3
f 96/2/3 94/2/3 95/2/3
f 97/2/4 98/2/4 99/2/4
f 99/2/4 98/2/4 100/2/4
f 101/1/4 102/1/4 103/1/4
f 103/1/4 102/1/4 104/1/4
f 105/1/4 106/1/4 107/1/4
f 107/1/4 106/1/4 108/1/4
f 109/1/4 110/1/4 111/1/4
f 111/1/4 110/1/4 112/1/4
f 113/3/4 114/3/4 115/3/4
f 115/3/4 114/3/4 116/3/4
f 117/3/4 118/3/4 119/3/4
f 119/3/4 118/3/4 120/3/4
f 121/3/4 122/3/4 123/3/4
f 123/3/4 122/3/4 124/3/4
f 125/2/4 126/2/4 127/2/4
f 127/2/4 126/2/4 128/2/4
f 132/3/5 130/3/5 129/3/5
f 133/3/5 130/3/5 132/3/5
f 135/3/5 132/3/5 131/3/5
f 135/3/5 134/3/5 133/3/5
f 135/3/5 133/3/5 132/3/5
f 136/3/5 134/3/5 135/3/5
f 137/3/5 134/3/5 136/3/5
f 138/3/5 134/3/5 137/3/5
f 139/3/5 137/3/5 136/3/5
f 140/3/5 137/3/5 139/3/5
f 143/2/5 142/2/5 141/2/5
f 144/2/5 142/2/5 143/2/5
f 147/2/5 146/2/5 145/2/5
f 148/2/5 146/2/5 147/2/5
f 149/2/5 147/2/5 145/2/5
f 150/2/5 147/2/5 149/2/5
f 151/2/5 146/2/5 148/2/5
f 152/2/5 146/2/5 151/2/5
f 153/2/5 149/2/5 145/2/5
f 156/2/5 146/2/5 152/2/5
f 157/2/5 154/2/5 153/2/5
f 158/2/5 156/2/5 155/2/5
f 159/2/5 157/2/5 153/2/5
f 159/2/5 158/2/5 157/2/5
f 159/2/5 153/2/5 145/2/5
f 160/2/5 156/2/5 158/2/5
f 160/2/5 158/2/5 159/2/5
f 160/2/5 146/2/5 156/2/5
f 161/3/6 162/3/6 164/3/6
f 164/3/6 162/3/6 165/3/6
f 163/3/6 164/3/6 167/3/6
f 165/3/6 166/3/6 167/3/6
f 164/3/6 165/3/6 167/3/6
f 167/3/6 166/3/6 168/3/6
f 163/3/6 167/3/6 169/3/6
f 169/3/6 167/3/6 170/3/6
f 168/3/6 166/3/6 171/3/6
f 171/3/6 166/3/6 172/3/6
f 163/3/6 169/3/6 173/3/6
f 172/3/6 166/3/6 176/3/6
f 173/3/6 174/3/6 177/3/6
f 175/3/6 176/3/6 178/3/6
f 173/3/6 177/3/6 179/3/6
f 177/3/6 178/3/6 179/3/6
f 163/3/6 173/3/6 179/3/6
f 179/3/6 178/3/6 180/3/6
f 178/3/6 176/3/6 181/3/6
f 180/3/6 178/3/6 181/3/6
f 176/3/6 166/3/6 181/3/6
f 181/3/6 166/3/6 182/3/6
f 180/3/6 181/3/6 183/3/6
f 183/3/6 181/3/6 184/3/6
f 185/2/6 186/2/6 187/2/6
f 187/2/6 186/2/6 188/2/6
f 189/2/6 190/2/6 191/2/6
f 191/2/6 190/2/6 192/2/6
