# MagicaVoxel @ Ephtracy

# group
g flag red

# material
mtllib flag red.mtl
usemtl palette

# normals
vn -1 0 0
vn 1 0 0
vn 0 0 1
vn 0 0 -1
vn 0 -1 0
vn 0 1 0

# texcoords
vt 0.537109 0.5
vt 0.865234 0.5

# verts
v -16.5 0 2
v -16.5 0 -2
v -16.5 80 2
v -16.5 80 -2
v -12.5 0 2
v -12.5 0 -2
v -12.5 58 2
v -12.5 58 -2
v 6.5 79 2
v 6.5 79 -2
v 6.5 80 2
v 6.5 80 -2
v 7.5 58 2
v 7.5 58 -2
v 7.5 59 2
v 7.5 59 -2
v 7.5 78 2
v 7.5 78 -2
v 7.5 79 2
v 7.5 79 -2
v 8.5 59 2
v 8.5 59 -2
v 8.5 60 2
v 8.5 60 -2
v 8.5 77 2
v 8.5 77 -2
v 8.5 78 2
v 8.5 78 -2
v 9.5 60 2
v 9.5 60 -2
v 9.5 61 2
v 9.5 61 -2
v 9.5 76 2
v 9.5 76 -2
v 9.5 77 2
v 9.5 77 -2
v 10.5 61 2
v 10.5 61 -2
v 10.5 62 2
v 10.5 62 -2
v 10.5 75 2
v 10.5 75 -2
v 10.5 76 2
v 10.5 76 -2
v 11.5 62 2
v 11.5 62 -2
v 11.5 63 2
v 11.5 63 -2
v 11.5 74 2
v 11.5 74 -2
v 11.5 75 2
v 11.5 75 -2
v 12.5 63 2
v 12.5 63 -2
v 12.5 64 2
v 12.5 64 -2
v 12.5 73 2
v 12.5 73 -2
v 12.5 74 2
v 12.5 74 -2
v 13.5 64 2
v 13.5 64 -2
v 13.5 65 2
v 13.5 65 -2
v 13.5 72 2
v 13.5 72 -2
v 13.5 73 2
v 13.5 73 -2
v 14.5 65 2
v 14.5 65 -2
v 14.5 66 2
v 14.5 66 -2
v 14.5 71 2
v 14.5 71 -2
v 14.5 72 2
v 14.5 72 -2
v 15.5 66 2
v 15.5 66 -2
v 15.5 67 2
v 15.5 67 -2
v 15.5 70 2
v 15.5 70 -2
v 15.5 71 2
v 15.5 71 -2
v 16.5 67 2
v 16.5 67 -2
v 16.5 70 2
v 16.5 70 -2
v -16.5 0 2
v -16.5 80 2
v -12.5 0 2
v -12.5 58 2
v -12.5 80 2
v 6.5 79 2
v 6.5 80 2
v 7.5 58 2
v 7.5 59 2
v 7.5 78 2
v 7.5 79 2
v 8.5 59 2
v 8.5 60 2
v 8.5 77 2
v 8.5 78 2
v 9.5 60 2
v 9.5 61 2
v 9.5 76 2
v 9.5 77 2
v 10.5 61 2
v 10.5 62 2
v 10.5 75 2
v 10.5 76 2
v 11.5 62 2
v 11.5 63 2
v 11.5 74 2
v 11.5 75 2
v 12.5 63 2
v 12.5 64 2
v 12.5 73 2
v 12.5 74 2
v 13.5 64 2
v 13.5 65 2
v 13.5 72 2
v 13.5 73 2
v 14.5 65 2
v 14.5 66 2
v 14.5 71 2
v 14.5 72 2
v 15.5 66 2
v 15.5 67 2
v 15.5 70 2
v 15.5 71 2
v 16.5 67 2
v 16.5 70 2
v -16.5 0 -2
v -16.5 80 -2
v -12.5 0 -2
v -12.5 58 -2
v -12.5 80 -2
v 6.5 79 -2
v 6.5 80 -2
v 7.5 58 -2
v 7.5 59 -2
v 7.5 78 -2
v 7.5 79 -2
v 8.5 59 -2
v 8.5 60 -2
v 8.5 77 -2
v 8.5 78 -2
v 9.5 60 -2
v 9.5 61 -2
v 9.5 76 -2
v 9.5 77 -2
v 10.5 61 -2
v 10.5 62 -2
v 10.5 75 -2
v 10.5 76 -2
v 11.5 62 -2
v 11.5 63 -2
v 11.5 74 -2
v 11.5 75 -2
v 12.5 63 -2
v 12.5 64 -2
v 12.5 73 -2
v 12.5 74 -2
v 13.5 64 -2
v 13.5 65 -2
v 13.5 72 -2
v 13.5 73 -2
v 14.5 65 -2
v 14.5 66 -2
v 14.5 71 -2
v 14.5 72 -2
v 15.5 66 -2
v 15.5 67 -2
v 15.5 70 -2
v 15.5 71 -2
v 16.5 67 -2
v 16.5 70 -2
v -16.5 0 2
v -12.5 0 2
v -16.5 0 -2
v -12.5 0 -2
v -12.5 58 2
v 7.5 58 2
v -12.5 58 -2
v 7.5 58 -2
v 7.5 59 2
v 8.5 59 2
v 7.5 59 -2
v 8.5 59 -2
v 8.5 60 2
v 9.5 60 2
v 8.5 60 -2
v 9.5 60 -2
v 9.5 61 2
v 10.5 61 2
v 9.5 61 -2
v 10.5 61 -2
v 10.5 62 2
v 11.5 62 2
v 10.5 62 -2
v 11.5 62 -2
v 11.5 63 2
v 12.5 63 2
v 11.5 63 -2
v 12.5 63 -2
v 12.5 64 2
v 13.5 64 2
v 12.5 64 -2
v 13.5 64 -2
v 13.5 65 2
v 14.5 65 2
v 13.5 65 -2
v 14.5 65 -2
v 14.5 66 2
v 15.5 66 2
v 14.5 66 -2
v 15.5 66 -2
v 15.5 67 2
v 16.5 67 2
v 15.5 67 -2
v 16.5 67 -2
v 15.5 70 2
v 16.5 70 2
v 15.5 70 -2
v 16.5 70 -2
v 14.5 71 2
v 15.5 71 2
v 14.5 71 -2
v 15.5 71 -2
v 13.5 72 2
v 14.5 72 2
v 13.5 72 -2
v 14.5 72 -2
v 12.5 73 2
v 13.5 73 2
v 12.5 73 -2
v 13.5 73 -2
v 11.5 74 2
v 12.5 74 2
v 11.5 74 -2
v 12.5 74 -2
v 10.5 75 2
v 11.5 75 2
v 10.5 75 -2
v 11.5 75 -2
v 9.5 76 2
v 10.5 76 2
v 9.5 76 -2
v 10.5 76 -2
v 8.5 77 2
v 9.5 77 2
v 8.5 77 -2
v 9.5 77 -2
v 7.5 78 2
v 8.5 78 2
v 7.5 78 -2
v 8.5 78 -2
v 6.5 79 2
v 7.5 79 2
v 6.5 79 -2
v 7.5 79 -2
v -16.5 80 2
v -12.5 80 2
v 6.5 80 2
v -16.5 80 -2
v -12.5 80 -2
v 6.5 80 -2

# faces
f 3/1/1 2/1/1 1/1/1
f 4/1/1 2/1/1 3/1/1
f 5/1/2 6/1/2 7/1/2
f 7/1/2 6/1/2 8/1/2
f 9/2/2 10/2/2 11/2/2
f 11/2/2 10/2/2 12/2/2
f 13/2/2 14/2/2 15/2/2
f 15/2/2 14/2/2 16/2/2
f 17/2/2 18/2/2 19/2/2
f 19/2/2 18/2/2 20/2/2
f 21/2/2 22/2/2 23/2/2
f 23/2/2 22/2/2 24/2/2
f 25/2/2 26/2/2 27/2/2
f 27/2/2 26/2/2 28/2/2
f 29/2/2 30/2/2 31/2/2
f 31/2/2 30/2/2 32/2/2
f 33/2/2 34/2/2 35/2/2
f 35/2/2 34/2/2 36/2/2
f 37/2/2 38/2/2 39/2/2
f 39/2/2 38/2/2 40/2/2
f 41/2/2 42/2/2 43/2/2
f 43/2/2 42/2/2 44/2/2
f 45/2/2 46/2/2 47/2/2
f 47/2/2 46/2/2 48/2/2
f 49/2/2 50/2/2 51/2/2
f 51/2/2 50/2/2 52/2/2
f 53/2/2 54/2/2 55/2/2
f 55/2/2 54/2/2 56/2/2
f 57/2/2 58/2/2 59/2/2
f 59/2/2 58/2/2 60/2/2
f 61/2/2 62/2/2 63/2/2
f 63/2/2 62/2/2 64/2/2
f 65/2/2 66/2/2 67/2/2
f 67/2/2 66/2/2 68/2/2
f 69/2/2 70/2/2 71/2/2
f 71/2/2 70/2/2 72/2/2
f 73/2/2 74/2/2 75/2/2
f 75/2/2 74/2/2 76/2/2
f 77/2/2 78/2/2 79/2/2
f 79/2/2 78/2/2 80/2/2
f 81/2/2 82/2/2 83/2/2
f 83/2/2 82/2/2 84/2/2
f 85/2/2 86/2/2 87/2/2
f 87/2/2 86/2/2 88/2/2
f 91/1/3 90/1/3 89/1/3
f 92/1/3 90/1/3 91/1/3
f 93/1/3 90/1/3 92/1/3
f 94/2/3 93/2/3 92/2/3
f 95/2/3 93/2/3 94/2/3
f 96/2/3 94/2/3 92/2/3
f 97/2/3 94/2/3 96/2/3
f 98/2/3 94/2/3 97/2/3
f 99/2/3 94/2/3 98/2/3
f 100/2/3 98/2/3 97/2/3
f 101/2/3 98/2/3 100/2/3
f 102/2/3 98/2/3 101/2/3
f 103/2/3 98/2/3 102/2/3
f 104/2/3 102/2/3 101/2/3
f 105/2/3 102/2/3 104/2/3
f 106/2/3 102/2/3 105/2/3
f 107/2/3 102/2/3 106/2/3
f 108/2/3 106/2/3 105/2/3
f 109/2/3 106/2/3 108/2/3
f 110/2/3 106/2/3 109/2/3
f 111/2/3 106/2/3 110/2/3
f 112/2/3 110/2/3 109/2/3
f 113/2/3 110/2/3 112/2/3
f 114/2/3 110/2/3 113/2/3
f 115/2/3 110/2/3 114/2/3
f 116/2/3 114/2/3 113/2/3
f 117/2/3 114/2/3 116/2/3
f 118/2/3 114/2/3 117/2/3
f 119/2/3 114/2/3 118/2/3
f 120/2/3 118/2/3 117/2/3
f 121/2/3 118/2/3 120/2/3
f 122/2/3 118/2/3 121/2/3
f 123/2/3 118/2/3 122/2/3
f 124/2/3 122/2/3 121/2/3
f 125/2/3 122/2/3 124/2/3
f 126/2/3 122/2/3 125/2/3
f 127/2/3 122/2/3 126/2/3
f 128/2/3 126/2/3 125/2/3
f 129/2/3 126/2/3 128/2/3
f 130/2/3 126/2/3 129/2/3
f 131/2/3 126/2/3 130/2/3
f 132/2/3 130/2/3 129/2/3
f 133/2/3 130/2/3 132/2/3
f 134/1/4 135/1/4 136/1/4
f 136/1/4 135/1/4 137/1/4
f 137/1/4 135/1/4 138/1/4
f 137/2/4 138/2/4 139/2/4
f 139/2/4 138/2/4 140/2/4
f 137/2/4 139/2/4 141/2/4
f 141/2/4 139/2/4 142/2/4
f 142/2/4 139/2/4 143/2/4
f 143/2/4 139/2/4 144/2/4
f 142/2/4 143/2/4 145/2/4
f 145/2/4 143/2/4 146/2/4
f 146/2/4 143/2/4 147/2/4
f 147/2/4 143/2/4 148/2/4
f 146/2/4 147/2/4 149/2/4
f 149/2/4 147/2/4 150/2/4
f 150/2/4 147/2/4 151/2/4
f 151/2/4 147/2/4 152/2/4
f 150/2/4 151/2/4 153/2/4
f 153/2/4 151/2/4 154/2/4
f 154/2/4 151/2/4 155/2/4
f 155/2/4 151/2/4 156/2/4
f 154/2/4 155/2/4 157/2/4
f 157/2/4 155/2/4 158/2/4
f 158/2/4 155/2/4 159/2/4
f 159/2/4 155/2/4 160/2/4
f 158/2/4 159/2/4 161/2/4
f 161/2/4 159/2/4 162/2/4
f 162/2/4 159/2/4 163/2/4
f 163/2/4 159/2/4 164/2/4
f 162/2/4 163/2/4 165/2/4
f 165/2/4 163/2/4 166/2/4
f 166/2/4 163/2/4 167/2/4
f 167/2/4 163/2/4 168/2/4
f 166/2/4 167/2/4 169/2/4
f 169/2/4 167/2/4 170/2/4
f 170/2/4 167/2/4 171/2/4
f 171/2/4 167/2/4 172/2/4
f 170/2/4 171/2/4 173/2/4
f 173/2/4 171/2/4 174/2/4
f 174/2/4 171/2/4 175/2/4
f 175/2/4 171/2/4 176/2/4
f 174/2/4 175/2/4 177/2/4
f 177/2/4 175/2/4 178/2/4
f 181/1/5 180/1/5 179/1/5
f 182/1/5 180/1/5 181/1/5
f 185/2/5 184/2/5 183/2/5
f 186/2/5 184/2/5 185/2/5
f 189/2/5 188/2/5 187/2/5
f 190/2/5 188/2/5 189/2/5
f 193/2/5 192/2/5 191/2/5
f 194/2/5 192/2/5 193/2/5
f 197/2/5 196/2/5 195/2/5
f 198/2/5 196/2/5 197/2/5
f 201/2/5 200/2/5 199/2/5
f 202/2/5 200/2/5 201/2/5
f 205/2/5 204/2/5 203/2/5
f 206/2/5 204/2/5 205/2/5
f 209/2/5 208/2/5 207/2/5
f 210/2/5 208/2/5 209/2/5
f 213/2/5 212/2/5 211/2/5
f 214/2/5 212/2/5 213/2/5
f 217/2/5 216/2/5 215/2/5
f 218/2/5 216/2/5 217/2/5
f 221/2/5 220/2/5 219/2/5
f 222/2/5 220/2/5 221/2/5
f 223/2/6 224/2/6 225/2/6
f 225/2/6 224/2/6 226/2/6
f 227/2/6 228/2/6 229/2/6
f 229/2/6 228/2/6 230/2/6
f 231/2/6 232/2/6 233/2/6
f 233/2/6 232/2/6 234/2/6
f 235/2/6 236/2/6 237/2/6
f 237/2/6 236/2/6 238/2/6
f 239/2/6 240/2/6 241/2/6
f 241/2/6 240/2/6 242/2/6
f 243/2/6 244/2/6 245/2/6
f 245/2/6 244/2/6 246/2/6
f 247/2/6 248/2/6 249/2/6
f 249/2/6 248/2/6 250/2/6
f 251/2/6 252/2/6 253/2/6
f 253/2/6 252/2/6 254/2/6
f 255/2/6 256/2/6 257/2/6
f 257/2/6 256/2/6 258/2/6
f 259/2/6 260/2/6 261/2/6
f 261/2/6 260/2/6 262/2/6
f 263/1/6 264/1/6 266/1/6
f 264/2/6 265/2/6 267/2/6
f 266/1/6 264/1/6 267/1/6
f 267/2/6 265/2/6 268/2/6
