# MagicaVoxel @ Ephtracy

# group
g piano

# material
mtllib piano.mtl
usemtl palette

# normals
vn -1 0 0
vn 1 0 0
vn 0 0 1
vn 0 0 -1
vn 0 -1 0
vn 0 1 0

# texcoords
vt 0.369141 0.5
vt 0.537109 0.5
vt 0.958984 0.5
vt 0.974609 0.5
vt 0.994141 0.5

# verts
v -33 0 11
v -33 0 -11
v -33 16 11
v -33 16 8
v -33 18 8
v -33 18 6
v -33 20 6
v -33 20 3
v -33 22 3
v -33 22 -1
v -33 32 -1
v -33 32 -11
v -29 15 5
v -29 15 2
v -29 16 5
v -29 16 2
v -26 15 4
v -26 15 2
v -26 16 4
v -26 16 2
v -23 15 5
v -23 15 2
v -23 16 5
v -23 16 2
v -20 15 4
v -20 15 2
v -20 16 4
v -20 16 2
v -17 15 5
v -17 15 2
v -17 16 5
v -17 16 2
v -14 15 4
v -14 15 2
v -14 16 4
v -14 16 2
v -11 15 5
v -11 15 2
v -11 16 5
v -11 16 2
v -8 15 4
v -8 15 2
v -8 16 4
v -8 16 2
v -8 20 1
v -8 20 -1
v -8 21 1
v -8 21 -0
v -8 27 -0
v -8 27 -1
v -6 1 10
v -6 1 7
v -6 2 10
v -6 2 8
v -6 3 8
v -6 3 7
v -6 21 1
v -6 21 -0
v -6 26 1
v -6 26 -0
v -5 15 5
v -5 15 2
v -5 16 5
v -5 16 2
v -2 1 10
v -2 1 7
v -2 2 10
v -2 2 8
v -2 3 8
v -2 3 7
v -2 15 4
v -2 15 2
v -2 16 4
v -2 16 2
v 1 15 5
v 1 15 2
v 1 16 5
v 1 16 2
v 2 1 10
v 2 1 7
v 2 2 10
v 2 2 8
v 2 3 8
v 2 3 7
v 4 15 4
v 4 15 2
v 4 16 4
v 4 16 2
v 7 15 5
v 7 15 2
v 7 16 5
v 7 16 2
v 10 15 4
v 10 15 2
v 10 16 4
v 10 16 2
v 13 15 5
v 13 15 2
v 13 16 5
v 13 16 2
v 16 15 4
v 16 15 2
v 16 16 4
v 16 16 2
v 19 15 5
v 19 15 2
v 19 16 5
v 19 16 2
v 22 15 4
v 22 15 2
v 22 16 4
v 22 16 2
v 25 15 5
v 25 15 2
v 25 16 5
v 25 16 2
v 28 15 4
v 28 15 2
v 28 16 4
v 28 16 2
v 31 0 11
v 31 0 7
v 31 10 8
v 31 10 7
v 31 14 8
v 31 14 6
v 31 15 6
v 31 15 2
v 31 16 11
v 31 16 8
v 31 16 2
v 31 16 -0
v 31 18 8
v 31 18 6
v 31 18 -0
v 31 18 -1
v 31 20 6
v 31 20 3
v 31 22 3
v 31 22 -1
v -31 0 11
v -31 0 7
v -31 10 8
v -31 10 7
v -31 14 8
v -31 14 6
v -31 15 6
v -31 15 2
v -31 16 11
v -31 16 8
v -31 16 2
v -31 16 -0
v -31 18 8
v -31 18 6
v -31 18 -0
v -31 18 -1
v -31 20 6
v -31 20 3
v -31 22 3
v -31 22 -1
v -28 15 5
v -28 15 2
v -28 16 5
v -28 16 2
v -25 15 4
v -25 15 2
v -25 16 4
v -25 16 2
v -22 15 5
v -22 15 2
v -22 16 5
v -22 16 2
v -19 15 4
v -19 15 2
v -19 16 4
v -19 16 2
v -16 15 5
v -16 15 2
v -16 16 5
v -16 16 2
v -13 15 4
v -13 15 2
v -13 16 4
v -13 16 2
v -10 15 5
v -10 15 2
v -10 16 5
v -10 16 2
v -7 15 4
v -7 15 2
v -7 16 4
v -7 16 2
v -4 1 10
v -4 1 7
v -4 2 10
v -4 2 8
v -4 3 8
v -4 3 7
v -4 15 5
v -4 15 2
v -4 16 5
v -4 16 2
v -1 15 4
v -1 15 2
v -1 16 4
v -1 16 2
v 0 1 10
v 0 1 7
v 0 2 10
v 0 2 8
v 0 3 8
v 0 3 7
v 2 15 5
v 2 15 2
v 2 16 5
v 2 16 2
v 4 1 10
v 4 1 7
v 4 2 10
v 4 2 8
v 4 3 8
v 4 3 7
v 5 15 4
v 5 15 2
v 5 16 4
v 5 16 2
v 6 21 1
v 6 21 -0
v 6 26 1
v 6 26 -0
v 8 15 5
v 8 15 2
v 8 16 5
v 8 16 2
v 8 20 1
v 8 20 -1
v 8 21 1
v 8 21 -0
v 8 27 -0
v 8 27 -1
v 11 15 4
v 11 15 2
v 11 16 4
v 11 16 2
v 14 15 5
v 14 15 2
v 14 16 5
v 14 16 2
v 17 15 4
v 17 15 2
v 17 16 4
v 17 16 2
v 20 15 5
v 20 15 2
v 20 16 5
v 20 16 2
v 23 15 4
v 23 15 2
v 23 16 4
v 23 16 2
v 26 15 5
v 26 15 2
v 26 16 5
v 26 16 2
v 29 15 4
v 29 15 2
v 29 16 4
v 29 16 2
v 33 0 11
v 33 0 -11
v 33 16 11
v 33 16 8
v 33 18 8
v 33 18 6
v 33 20 6
v 33 20 3
v 33 22 3
v 33 22 -1
v 33 32 -1
v 33 32 -11
v -33 0 11
v -33 16 11
v -31 0 11
v -31 16 11
v 31 0 11
v 31 16 11
v 33 0 11
v 33 16 11
v -6 1 10
v -6 2 10
v -4 1 10
v -4 2 10
v -2 1 10
v -2 2 10
v 0 1 10
v 0 2 10
v 2 1 10
v 2 2 10
v 4 1 10
v 4 2 10
v -33 16 8
v -33 18 8
v -31 10 8
v -31 14 8
v -31 16 8
v -31 18 8
v -6 2 8
v -6 3 8
v -4 2 8
v -4 3 8
v -2 2 8
v -2 3 8
v 0 2 8
v 0 3 8
v 2 2 8
v 2 3 8
v 4 2 8
v 4 3 8
v 31 10 8
v 31 14 8
v 31 16 8
v 31 18 8
v 33 16 8
v 33 18 8
v -31 0 7
v -31 10 7
v -6 1 7
v -6 3 7
v -4 1 7
v -4 3 7
v -2 1 7
v -2 3 7
v 0 1 7
v 0 3 7
v 2 1 7
v 2 3 7
v 4 1 7
v 4 3 7
v 31 0 7
v 31 10 7
v -33 18 6
v -33 20 6
v -31 14 6
v -31 15 6
v -31 18 6
v -31 20 6
v 31 14 6
v 31 15 6
v 31 18 6
v 31 20 6
v 33 18 6
v 33 20 6
v -29 15 5
v -29 16 5
v -28 15 5
v -28 16 5
v -23 15 5
v -23 16 5
v -22 15 5
v -22 16 5
v -17 15 5
v -17 16 5
v -16 15 5
v -16 16 5
v -11 15 5
v -11 16 5
v -10 15 5
v -10 16 5
v -5 15 5
v -5 16 5
v -4 15 5
v -4 16 5
v 1 15 5
v 1 16 5
v 2 15 5
v 2 16 5
v 7 15 5
v 7 16 5
v 8 15 5
v 8 16 5
v 13 15 5
v 13 16 5
v 14 15 5
v 14 16 5
v 19 15 5
v 19 16 5
v 20 15 5
v 20 16 5
v 25 15 5
v 25 16 5
v 26 15 5
v 26 16 5
v -26 15 4
v -26 16 4
v -25 15 4
v -25 16 4
v -20 15 4
v -20 16 4
v -19 15 4
v -19 16 4
v -14 15 4
v -14 16 4
v -13 15 4
v -13 16 4
v -8 15 4
v -8 16 4
v -7 15 4
v -7 16 4
v -2 15 4
v -2 16 4
v -1 15 4
v -1 16 4
v 4 15 4
v 4 16 4
v 5 15 4
v 5 16 4
v 10 15 4
v 10 16 4
v 11 15 4
v 11 16 4
v 16 15 4
v 16 16 4
v 17 15 4
v 17 16 4
v 22 15 4
v 22 16 4
v 23 15 4
v 23 16 4
v 28 15 4
v 28 16 4
v 29 15 4
v 29 16 4
v -33 20 3
v -33 22 3
v -31 20 3
v -31 22 3
v 31 20 3
v 31 22 3
v 33 20 3
v 33 22 3
v -31 15 2
v -31 16 2
v -29 15 2
v -29 16 2
v -28 15 2
v -28 16 2
v -26 15 2
v -26 16 2
v -25 15 2
v -25 16 2
v -23 15 2
v -23 16 2
v -22 15 2
v -22 16 2
v -20 15 2
v -20 16 2
v -19 15 2
v -19 16 2
v -17 15 2
v -17 16 2
v -16 15 2
v -16 16 2
v -14 15 2
v -14 16 2
v -13 15 2
v -13 16 2
v -11 15 2
v -11 16 2
v -10 15 2
v -10 16 2
v -8 15 2
v -8 16 2
v -7 15 2
v -7 16 2
v -5 15 2
v -5 16 2
v -4 15 2
v -4 16 2
v -2 15 2
v -2 16 2
v -1 15 2
v -1 16 2
v 1 15 2
v 1 16 2
v 2 15 2
v 2 16 2
v 4 15 2
v 4 16 2
v 5 15 2
v 5 16 2
v 7 15 2
v 7 16 2
v 8 15 2
v 8 16 2
v 10 15 2
v 10 16 2
v 11 15 2
v 11 16 2
v 13 15 2
v 13 16 2
v 14 15 2
v 14 16 2
v 16 15 2
v 16 16 2
v 17 15 2
v 17 16 2
v 19 15 2
v 19 16 2
v 20 15 2
v 20 16 2
v 22 15 2
v 22 16 2
v 23 15 2
v 23 16 2
v 25 15 2
v 25 16 2
v 26 15 2
v 26 16 2
v 28 15 2
v 28 16 2
v 29 15 2
v 29 16 2
v 31 15 2
v 31 16 2
v -8 20 1
v -8 21 1
v -6 21 1
v -6 26 1
v -5 22 1
v -5 23 1
v -5 24 1
v -5 25 1
v -1 22 1
v -1 23 1
v -1 24 1
v -1 25 1
v 1 22 1
v 1 23 1
v 1 24 1
v 1 25 1
v 4 22 1
v 4 23 1
v 5 24 1
v 5 25 1
v 6 21 1
v 6 26 1
v 8 20 1
v 8 21 1
v -31 16 -0
v -31 18 -0
v -8 21 -0
v -8 27 -0
v -6 21 -0
v -6 26 -0
v 6 21 -0
v 6 26 -0
v 8 21 -0
v 8 27 -0
v 31 16 -0
v 31 18 -0
v -33 22 -1
v -33 32 -1
v -31 18 -1
v -31 22 -1
v -8 20 -1
v -8 27 -1
v 8 20 -1
v 8 27 -1
v 31 18 -1
v 31 22 -1
v 33 22 -1
v 33 32 -1
v -33 0 -11
v -33 32 -11
v 33 0 -11
v 33 32 -11
v -33 0 11
v -31 0 11
v 31 0 11
v 33 0 11
v -31 0 7
v 31 0 7
v -33 0 -11
v 33 0 -11
v -6 1 10
v -4 1 10
v -2 1 10
v 0 1 10
v 2 1 10
v 4 1 10
v -6 1 7
v -4 1 7
v -2 1 7
v 0 1 7
v 2 1 7
v 4 1 7
v -31 10 8
v 31 10 8
v -31 10 7
v 31 10 7
v -8 20 1
v 8 20 1
v -8 20 -1
v 8 20 -1
v -6 2 10
v -4 2 10
v -2 2 10
v 0 2 10
v 2 2 10
v 4 2 10
v -6 2 8
v -4 2 8
v -2 2 8
v 0 2 8
v 2 2 8
v 4 2 8
v -6 3 8
v -4 3 8
v -2 3 8
v 0 3 8
v 2 3 8
v 4 3 8
v -6 3 7
v -4 3 7
v -2 3 7
v 0 3 7
v 2 3 7
v 4 3 7
v -31 14 8
v 31 14 8
v -31 14 6
v 31 14 6
v -31 15 6
v 31 15 6
v -29 15 5
v -28 15 5
v -23 15 5
v -22 15 5
v -17 15 5
v -16 15 5
v -11 15 5
v -10 15 5
v -5 15 5
v -4 15 5
v 1 15 5
v 2 15 5
v 7 15 5
v 8 15 5
v 13 15 5
v 14 15 5
v 19 15 5
v 20 15 5
v 25 15 5
v 26 15 5
v -26 15 4
v -25 15 4
v -20 15 4
v -19 15 4
v -14 15 4
v -13 15 4
v -8 15 4
v -7 15 4
v -2 15 4
v -1 15 4
v 4 15 4
v 5 15 4
v 10 15 4
v 11 15 4
v 16 15 4
v 17 15 4
v 22 15 4
v 23 15 4
v 28 15 4
v 29 15 4
v -31 15 2
v -29 15 2
v -28 15 2
v -26 15 2
v -25 15 2
v -23 15 2
v -22 15 2
v -20 15 2
v -19 15 2
v -17 15 2
v -16 15 2
v -14 15 2
v -13 15 2
v -11 15 2
v -10 15 2
v -8 15 2
v -7 15 2
v -5 15 2
v -4 15 2
v -2 15 2
v -1 15 2
v 1 15 2
v 2 15 2
v 4 15 2
v 5 15 2
v 7 15 2
v 8 15 2
v 10 15 2
v 11 15 2
v 13 15 2
v 14 15 2
v 16 15 2
v 17 15 2
v 19 15 2
v 20 15 2
v 22 15 2
v 23 15 2
v 25 15 2
v 26 15 2
v 28 15 2
v 29 15 2
v 31 15 2
v -33 16 11
v -31 16 11
v 31 16 11
v 33 16 11
v -33 16 8
v -31 16 8
v 31 16 8
v 33 16 8
v -29 16 5
v -28 16 5
v -23 16 5
v -22 16 5
v -17 16 5
v -16 16 5
v -11 16 5
v -10 16 5
v -5 16 5
v -4 16 5
v 1 16 5
v 2 16 5
v 7 16 5
v 8 16 5
v 13 16 5
v 14 16 5
v 19 16 5
v 20 16 5
v 25 16 5
v 26 16 5
v -26 16 4
v -25 16 4
v -20 16 4
v -19 16 4
v -14 16 4
v -13 16 4
v -8 16 4
v -7 16 4
v -2 16 4
v -1 16 4
v 4 16 4
v 5 16 4
v 10 16 4
v 11 16 4
v 16 16 4
v 17 16 4
v 22 16 4
v 23 16 4
v 28 16 4
v 29 16 4
v -31 16 2
v -29 16 2
v -28 16 2
v -26 16 2
v -25 16 2
v -23 16 2
v -22 16 2
v -20 16 2
v -19 16 2
v -17 16 2
v -16 16 2
v -14 16 2
v -13 16 2
v -11 16 2
v -10 16 2
v -8 16 2
v -7 16 2
v -5 16 2
v -4 16 2
v -2 16 2
v -1 16 2
v 1 16 2
v 2 16 2
v 4 16 2
v 5 16 2
v 7 16 2
v 8 16 2
v 10 16 2
v 11 16 2
v 13 16 2
v 14 16 2
v 16 16 2
v 17 16 2
v 19 16 2
v 20 16 2
v 22 16 2
v 23 16 2
v 25 16 2
v 26 16 2
v 28 16 2
v 29 16 2
v 31 16 2
v -31 16 -0
v 31 16 -0
v -33 18 8
v -31 18 8
v 31 18 8
v 33 18 8
v -33 18 6
v -31 18 6
v 31 18 6
v 33 18 6
v -31 18 -0
v 31 18 -0
v -31 18 -1
v 31 18 -1
v -33 20 6
v -31 20 6
v 31 20 6
v 33 20 6
v -33 20 3
v -31 20 3
v 31 20 3
v 33 20 3
v -8 21 1
v -6 21 1
v 6 21 1
v 8 21 1
v -8 21 -0
v -6 21 -0
v 6 21 -0
v 8 21 -0
v -33 22 3
v -31 22 3
v 31 22 3
v 33 22 3
v -33 22 -1
v -31 22 -1
v 31 22 -1
v 33 22 -1
v -6 26 1
v 6 26 1
v -6 26 -0
v 6 26 -0
v -8 27 -0
v 8 27 -0
v -8 27 -1
v 8 27 -1
v -33 32 -1
v 33 32 -1
v -33 32 -11
v 33 32 -11

# faces
f 3/1/1 2/1/1 1/1/1
f 4/1/1 2/1/1 3/1/1
f 5/1/1 2/1/1 4/1/1
f 6/1/1 2/1/1 5/1/1
f 7/1/1 2/1/1 6/1/1
f 8/1/1 2/1/1 7/1/1
f 9/1/1 2/1/1 8/1/1
f 10/1/1 2/1/1 9/1/1
f 11/1/1 2/1/1 10/1/1
f 12/1/1 2/1/1 11/1/1
f 15/5/1 14/5/1 13/5/1
f 16/5/1 14/5/1 15/5/1
f 19/5/1 18/5/1 17/5/1
f 20/5/1 18/5/1 19/5/1
f 23/5/1 22/5/1 21/5/1
f 24/5/1 22/5/1 23/5/1
f 27/5/1 26/5/1 25/5/1
f 28/5/1 26/5/1 27/5/1
f 31/5/1 30/5/1 29/5/1
f 32/5/1 30/5/1 31/5/1
f 35/5/1 34/5/1 33/5/1
f 36/5/1 34/5/1 35/5/1
f 39/5/1 38/5/1 37/5/1
f 40/5/1 38/5/1 39/5/1
f 43/5/1 42/5/1 41/5/1
f 44/5/1 42/5/1 43/5/1
f 47/2/1 46/2/1 45/2/1
f 48/2/1 46/2/1 47/2/1
f 49/2/1 46/2/1 48/2/1
f 50/2/1 46/2/1 49/2/1
f 53/4/1 52/4/1 51/4/1
f 54/4/1 52/4/1 53/4/1
f 55/4/1 52/4/1 54/4/1
f 56/4/1 52/4/1 55/4/1
f 59/3/1 58/3/1 57/3/1
f 60/3/1 58/3/1 59/3/1
f 63/5/1 62/5/1 61/5/1
f 64/5/1 62/5/1 63/5/1
f 67/4/1 66/4/1 65/4/1
f 68/4/1 66/4/1 67/4/1
f 69/4/1 66/4/1 68/4/1
f 70/4/1 66/4/1 69/4/1
f 73/5/1 72/5/1 71/5/1
f 74/5/1 72/5/1 73/5/1
f 77/5/1 76/5/1 75/5/1
f 78/5/1 76/5/1 77/5/1
f 81/4/1 80/4/1 79/4/1
f 82/4/1 80/4/1 81/4/1
f 83/4/1 80/4/1 82/4/1
f 84/4/1 80/4/1 83/4/1
f 87/5/1 86/5/1 85/5/1
f 88/5/1 86/5/1 87/5/1
f 91/5/1 90/5/1 89/5/1
f 92/5/1 90/5/1 91/5/1
f 95/5/1 94/5/1 93/5/1
f 96/5/1 94/5/1 95/5/1
f 99/5/1 98/5/1 97/5/1
f 100/5/1 98/5/1 99/5/1
f 103/5/1 102/5/1 101/5/1
f 104/5/1 102/5/1 103/5/1
f 107/5/1 106/5/1 105/5/1
f 108/5/1 106/5/1 107/5/1
f 111/5/1 110/5/1 109/5/1
f 112/5/1 110/5/1 111/5/1
f 115/5/1 114/5/1 113/5/1
f 116/5/1 114/5/1 115/5/1
f 119/5/1 118/5/1 117/5/1
f 120/5/1 118/5/1 119/5/1
f 123/1/1 122/1/1 121/1/1
f 124/1/1 122/1/1 123/1/1
f 125/1/1 123/1/1 121/1/1
f 127/1/1 126/1/1 125/1/1
f 129/1/1 125/1/1 121/1/1
f 129/1/1 128/1/1 127/1/1
f 129/1/1 127/1/1 125/1/1
f 130/1/1 128/1/1 129/1/1
f 131/1/1 128/1/1 130/1/1
f 133/1/1 132/1/1 131/1/1
f 133/1/1 131/1/1 130/1/1
f 134/1/1 132/1/1 133/1/1
f 135/1/1 132/1/1 134/1/1
f 137/1/1 136/1/1 135/1/1
f 137/1/1 135/1/1 134/1/1
f 138/1/1 136/1/1 137/1/1
f 139/1/1 136/1/1 138/1/1
f 140/1/1 136/1/1 139/1/1
f 141/1/2 142/1/2 143/1/2
f 143/1/2 142/1/2 144/1/2
f 141/1/2 143/1/2 145/1/2
f 145/1/2 146/1/2 147/1/2
f 141/1/2 145/1/2 149/1/2
f 147/1/2 148/1/2 149/1/2
f 145/1/2 147/1/2 149/1/2
f 149/1/2 148/1/2 150/1/2
f 150/1/2 148/1/2 151/1/2
f 151/1/2 152/1/2 153/1/2
f 150/1/2 151/1/2 153/1/2
f 153/1/2 152/1/2 154/1/2
f 154/1/2 152/1/2 155/1/2
f 155/1/2 156/1/2 157/1/2
f 154/1/2 155/1/2 157/1/2
f 157/1/2 156/1/2 158/1/2
f 158/1/2 156/1/2 159/1/2
f 159/1/2 156/1/2 160/1/2
f 161/5/2 162/5/2 163/5/2
f 163/5/2 162/5/2 164/5/2
f 165/5/2 166/5/2 167/5/2
f 167/5/2 166/5/2 168/5/2
f 169/5/2 170/5/2 171/5/2
f 171/5/2 170/5/2 172/5/2
f 173/5/2 174/5/2 175/5/2
f 175/5/2 174/5/2 176/5/2
f 177/5/2 178/5/2 179/5/2
f 179/5/2 178/5/2 180/5/2
f 181/5/2 182/5/2 183/5/2
f 183/5/2 182/5/2 184/5/2
f 185/5/2 186/5/2 187/5/2
f 187/5/2 186/5/2 188/5/2
f 189/5/2 190/5/2 191/5/2
f 191/5/2 190/5/2 192/5/2
f 193/4/2 194/4/2 195/4/2
f 195/4/2 194/4/2 196/4/2
f 196/4/2 194/4/2 197/4/2
f 197/4/2 194/4/2 198/4/2
f 199/5/2 200/5/2 201/5/2
f 201/5/2 200/5/2 202/5/2
f 203/5/2 204/5/2 205/5/2
f 205/5/2 204/5/2 206/5/2
f 207/4/2 208/4/2 209/4/2
f 209/4/2 208/4/2 210/4/2
f 210/4/2 208/4/2 211/4/2
f 211/4/2 208/4/2 212/4/2
f 213/5/2 214/5/2 215/5/2
f 215/5/2 214/5/2 216/5/2
f 217/4/2 218/4/2 219/4/2
f 219/4/2 218/4/2 220/4/2
f 220/4/2 218/4/2 221/4/2
f 221/4/2 218/4/2 222/4/2
f 223/5/2 224/5/2 225/5/2
f 225/5/2 224/5/2 226/5/2
f 227/3/2 228/3/2 229/3/2
f 229/3/2 228/3/2 230/3/2
f 231/5/2 232/5/2 233/5/2
f 233/5/2 232/5/2 234/5/2
f 235/2/2 236/2/2 237/2/2
f 237/2/2 236/2/2 238/2/2
f 238/2/2 236/2/2 239/2/2
f 239/2/2 236/2/2 240/2/2
f 241/5/2 242/5/2 243/5/2
f 243/5/2 242/5/2 244/5/2
f 245/5/2 246/5/2 247/5/2
f 247/5/2 246/5/2 248/5/2
f 249/5/2 250/5/2 251/5/2
f 251/5/2 250/5/2 252/5/2
f 253/5/2 254/5/2 255/5/2
f 255/5/2 254/5/2 256/5/2
f 257/5/2 258/5/2 259/5/2
f 259/5/2 258/5/2 260/5/2
f 261/5/2 262/5/2 263/5/2
f 263/5/2 262/5/2 264/5/2
f 265/5/2 266/5/2 267/5/2
f 267/5/2 266/5/2 268/5/2
f 269/1/2 270/1/2 271/1/2
f 271/1/2 270/1/2 272/1/2
f 272/1/2 270/1/2 273/1/2
f 273/1/2 270/1/2 274/1/2
f 274/1/2 270/1/2 275/1/2
f 275/1/2 270/1/2 276/1/2
f 276/1/2 270/1/2 277/1/2
f 277/1/2 270/1/2 278/1/2
f 278/1/2 270/1/2 279/1/2
f 279/1/2 270/1/2 280/1/2
f 283/1/3 282/1/3 281/1/3
f 284/1/3 282/1/3 283/1/3
f 287/1/3 286/1/3 285/1/3
f 288/1/3 286/1/3 287/1/3
f 291/4/3 290/4/3 289/4/3
f 292/4/3 290/4/3 291/4/3
f 295/4/3 294/4/3 293/4/3
f 296/4/3 294/4/3 295/4/3
f 299/4/3 298/4/3 297/4/3
f 300/4/3 298/4/3 299/4/3
f 305/1/3 302/1/3 301/1/3
f 306/1/3 302/1/3 305/1/3
f 309/4/3 308/4/3 307/4/3
f 310/4/3 308/4/3 309/4/3
f 313/4/3 312/4/3 311/4/3
f 314/4/3 312/4/3 313/4/3
f 317/4/3 316/4/3 315/4/3
f 318/4/3 316/4/3 317/4/3
f 319/1/3 304/1/3 303/1/3
f 320/1/3 304/1/3 319/1/3
f 323/1/3 322/1/3 321/1/3
f 324/1/3 322/1/3 323/1/3
f 327/1/3 326/1/3 325/1/3
f 328/1/3 326/1/3 327/1/3
f 329/1/3 327/1/3 325/1/3
f 330/1/3 326/1/3 328/1/3
f 331/1/3 329/1/3 325/1/3
f 331/1/3 330/1/3 329/1/3
f 332/1/3 326/1/3 330/1/3
f 332/1/3 330/1/3 331/1/3
f 333/1/3 331/1/3 325/1/3
f 334/1/3 326/1/3 332/1/3
f 335/1/3 333/1/3 325/1/3
f 335/1/3 334/1/3 333/1/3
f 336/1/3 326/1/3 334/1/3
f 336/1/3 334/1/3 335/1/3
f 337/1/3 335/1/3 325/1/3
f 338/1/3 326/1/3 336/1/3
f 339/1/3 337/1/3 325/1/3
f 339/1/3 338/1/3 337/1/3
f 340/1/3 326/1/3 338/1/3
f 340/1/3 338/1/3 339/1/3
f 345/1/3 342/1/3 341/1/3
f 346/1/3 342/1/3 345/1/3
f 347/3/3 344/3/3 343/3/3
f 348/3/3 344/3/3 347/3/3
f 351/1/3 350/1/3 349/1/3
f 352/1/3 350/1/3 351/1/3
f 355/5/3 354/5/3 353/5/3
f 356/5/3 354/5/3 355/5/3
f 359/5/3 358/5/3 357/5/3
f 360/5/3 358/5/3 359/5/3
f 363/5/3 362/5/3 361/5/3
f 364/5/3 362/5/3 363/5/3
f 367/5/3 366/5/3 365/5/3
f 368/5/3 366/5/3 367/5/3
f 371/5/3 370/5/3 369/5/3
f 372/5/3 370/5/3 371/5/3
f 375/5/3 374/5/3 373/5/3
f 376/5/3 374/5/3 375/5/3
f 379/5/3 378/5/3 377/5/3
f 380/5/3 378/5/3 379/5/3
f 383/5/3 382/5/3 381/5/3
f 384/5/3 382/5/3 383/5/3
f 387/5/3 386/5/3 385/5/3
f 388/5/3 386/5/3 387/5/3
f 391/5/3 390/5/3 389/5/3
f 392/5/3 390/5/3 391/5/3
f 395/5/3 394/5/3 393/5/3
f 396/5/3 394/5/3 395/5/3
f 399/5/3 398/5/3 397/5/3
f 400/5/3 398/5/3 399/5/3
f 403/5/3 402/5/3 401/5/3
f 404/5/3 402/5/3 403/5/3
f 407/5/3 406/5/3 405/5/3
f 408/5/3 406/5/3 407/5/3
f 411/5/3 410/5/3 409/5/3
f 412/5/3 410/5/3 411/5/3
f 415/5/3 414/5/3 413/5/3
f 416/5/3 414/5/3 415/5/3
f 419/5/3 418/5/3 417/5/3
f 420/5/3 418/5/3 419/5/3
f 423/5/3 422/5/3 421/5/3
f 424/5/3 422/5/3 423/5/3
f 427/5/3 426/5/3 425/5/3
f 428/5/3 426/5/3 427/5/3
f 431/5/3 430/5/3 429/5/3
f 432/5/3 430/5/3 431/5/3
f 435/1/3 434/1/3 433/1/3
f 436/1/3 434/1/3 435/1/3
f 439/1/3 438/1/3 437/1/3
f 440/1/3 438/1/3 439/1/3
f 443/1/3 442/1/3 441/1/3
f 444/1/3 442/1/3 443/1/3
f 447/1/3 446/1/3 445/1/3
f 448/1/3 446/1/3 447/1/3
f 451/1/3 450/1/3 449/1/3
f 452/1/3 450/1/3 451/1/3
f 455/1/3 454/1/3 453/1/3
f 456/1/3 454/1/3 455/1/3
f 459/1/3 458/1/3 457/1/3
f 460/1/3 458/1/3 459/1/3
f 463/1/3 462/1/3 461/1/3
f 464/1/3 462/1/3 463/1/3
f 467/1/3 466/1/3 465/1/3
f 468/1/3 466/1/3 467/1/3
f 471/1/3 470/1/3 469/1/3
f 472/1/3 470/1/3 471/1/3
f 475/1/3 474/1/3 473/1/3
f 476/1/3 474/1/3 475/1/3
f 479/1/3 478/1/3 477/1/3
f 480/1/3 478/1/3 479/1/3
f 483/1/3 482/1/3 481/1/3
f 484/1/3 482/1/3 483/1/3
f 487/1/3 486/1/3 485/1/3
f 488/1/3 486/1/3 487/1/3
f 491/1/3 490/1/3 489/1/3
f 492/1/3 490/1/3 491/1/3
f 495/1/3 494/1/3 493/1/3
f 496/1/3 494/1/3 495/1/3
f 499/1/3 498/1/3 497/1/3
f 500/1/3 498/1/3 499/1/3
f 503/1/3 502/1/3 501/1/3
f 504/1/3 502/1/3 503/1/3
f 507/1/3 506/1/3 505/1/3
f 508/1/3 506/1/3 507/1/3
f 511/1/3 510/1/3 509/1/3
f 512/1/3 510/1/3 511/1/3
f 515/1/3 514/1/3 513/1/3
f 516/1/3 514/1/3 515/1/3
f 519/1/3 518/1/3 517/1/3
f 520/1/3 518/1/3 519/1/3
f 523/1/3 522/1/3 521/1/3
f 524/1/3 522/1/3 523/1/3
f 527/2/3 526/2/3 525/2/3
f 529/3/3 528/3/3 527/3/3
f 530/3/3 528/3/3 529/3/3
f 531/3/3 528/3/3 530/3/3
f 532/3/3 528/3/3 531/3/3
f 533/3/3 529/3/3 527/3/3
f 533/5/3 530/5/3 529/5/3
f 534/3/3 531/3/3 530/3/3
f 534/5/3 530/5/3 533/5/3
f 535/5/3 532/5/3 531/5/3
f 535/3/3 531/3/3 534/3/3
f 536/3/3 528/3/3 532/3/3
f 536/5/3 532/5/3 535/5/3
f 537/3/3 535/3/3 534/3/3
f 537/3/3 534/3/3 533/3/3
f 537/3/3 536/3/3 535/3/3
f 537/3/3 533/3/3 527/3/3
f 538/3/3 536/3/3 537/3/3
f 539/3/3 536/3/3 538/3/3
f 540/3/3 528/3/3 536/3/3
f 540/3/3 536/3/3 539/3/3
f 541/3/3 537/3/3 527/3/3
f 541/5/3 538/5/3 537/5/3
f 542/3/3 539/3/3 538/3/3
f 542/5/3 538/5/3 541/5/3
f 543/5/3 540/5/3 539/5/3
f 543/3/3 539/3/3 542/3/3
f 543/3/3 542/3/3 541/3/3
f 544/3/3 528/3/3 540/3/3
f 544/5/3 540/5/3 543/5/3
f 545/2/3 527/2/3 525/2/3
f 545/3/3 541/3/3 527/3/3
f 545/3/3 544/3/3 543/3/3
f 545/3/3 543/3/3 541/3/3
f 546/3/3 528/3/3 544/3/3
f 546/3/3 544/3/3 545/3/3
f 547/2/3 545/2/3 525/2/3
f 548/2/3 545/2/3 547/2/3
f 553/2/3 552/2/3 551/2/3
f 554/2/3 552/2/3 553/2/3
f 556/2/3 552/2/3 554/2/3
f 557/2/3 556/2/3 555/2/3
f 558/2/3 552/2/3 556/2/3
f 558/2/3 556/2/3 557/2/3
f 559/1/3 550/1/3 549/1/3
f 560/1/3 550/1/3 559/1/3
f 564/1/3 562/1/3 561/1/3
f 565/1/3 564/1/3 563/1/3
f 566/1/3 562/1/3 564/1/3
f 566/1/3 564/1/3 565/1/3
f 567/1/3 565/1/3 563/1/3
f 568/1/3 562/1/3 566/1/3
f 569/1/3 567/1/3 563/1/3
f 569/1/3 568/1/3 567/1/3
f 570/1/3 568/1/3 569/1/3
f 571/1/3 568/1/3 570/1/3
f 572/1/3 562/1/3 568/1/3
f 572/1/3 568/1/3 571/1/3
f 573/1/4 574/1/4 575/1/4
f 575/1/4 574/1/4 576/1/4
f 581/1/5 578/1/5 577/1/5
f 582/1/5 580/1/5 579/1/5
f 583/1/5 581/1/5 577/1/5
f 583/1/5 582/1/5 581/1/5
f 584/1/5 580/1/5 582/1/5
f 584/1/5 582/1/5 583/1/5
f 591/4/5 586/4/5 585/4/5
f 592/4/5 586/4/5 591/4/5
f 593/4/5 588/4/5 587/4/5
f 594/4/5 588/4/5 593/4/5
f 595/4/5 590/4/5 589/4/5
f 596/4/5 590/4/5 595/4/5
f 599/1/5 598/1/5 597/1/5
f 600/1/5 598/1/5 599/1/5
f 603/2/5 602/2/5 601/2/5
f 604/2/5 602/2/5 603/2/5
f 605/4/6 606/4/6 611/4/6
f 611/4/6 606/4/6 612/4/6
f 607/4/6 608/4/6 613/4/6
f 613/4/6 608/4/6 614/4/6
f 609/4/6 610/4/6 615/4/6
f 615/4/6 610/4/6 616/4/6
f 617/4/6 618/4/6 623/4/6
f 623/4/6 618/4/6 624/4/6
f 619/4/6 620/4/6 625/4/6
f 625/4/6 620/4/6 626/4/6
f 621/4/6 622/4/6 627/4/6
f 627/4/6 622/4/6 628/4/6
f 629/1/6 630/1/6 631/1/6
f 631/1/6 630/1/6 632/1/6
f 633/3/6 634/3/6 635/3/6
f 635/3/6 634/3/6 636/3/6
f 636/3/6 634/3/6 637/3/6
f 637/3/6 634/3/6 638/3/6
f 638/3/6 634/3/6 639/3/6
f 639/3/6 634/3/6 640/3/6
f 640/3/6 634/3/6 641/3/6
f 641/3/6 634/3/6 642/3/6
f 642/3/6 634/3/6 643/3/6
f 643/3/6 634/3/6 644/3/6
f 644/3/6 634/3/6 645/3/6
f 645/3/6 634/3/6 646/3/6
f 646/3/6 634/3/6 647/3/6
f 647/3/6 634/3/6 648/3/6
f 648/3/6 634/3/6 649/3/6
f 649/3/6 634/3/6 650/3/6
f 650/3/6 634/3/6 651/3/6
f 651/3/6 634/3/6 652/3/6
f 652/3/6 634/3/6 653/3/6
f 653/3/6 634/3/6 654/3/6
f 636/3/6 637/3/6 655/3/6
f 655/3/6 637/3/6 656/3/6
f 638/3/6 639/3/6 657/3/6
f 657/3/6 639/3/6 658/3/6
f 640/3/6 641/3/6 659/3/6
f 659/3/6 641/3/6 660/3/6
f 642/3/6 643/3/6 661/3/6
f 661/3/6 643/3/6 662/3/6
f 644/3/6 645/3/6 663/3/6
f 663/3/6 645/3/6 664/3/6
f 646/3/6 647/3/6 665/3/6
f 665/3/6 647/3/6 666/3/6
f 648/3/6 649/3/6 667/3/6
f 667/3/6 649/3/6 668/3/6
f 650/3/6 651/3/6 669/3/6
f 669/3/6 651/3/6 670/3/6
f 652/3/6 653/3/6 671/3/6
f 671/3/6 653/3/6 672/3/6
f 654/3/6 634/3/6 673/3/6
f 673/3/6 634/3/6 674/3/6
f 633/3/6 635/3/6 675/3/6
f 675/3/6 635/3/6 676/3/6
f 636/3/6 655/3/6 677/3/6
f 677/3/6 655/3/6 678/3/6
f 656/3/6 637/3/6 679/3/6
f 679/3/6 637/3/6 680/3/6
f 638/3/6 657/3/6 681/3/6
f 681/3/6 657/3/6 682/3/6
f 658/3/6 639/3/6 683/3/6
f 683/3/6 639/3/6 684/3/6
f 640/3/6 659/3/6 685/3/6
f 685/3/6 659/3/6 686/3/6
f 660/3/6 641/3/6 687/3/6
f 687/3/6 641/3/6 688/3/6
f 642/3/6 661/3/6 689/3/6
f 689/3/6 661/3/6 690/3/6
f 662/3/6 643/3/6 691/3/6
f 691/3/6 643/3/6 692/3/6
f 644/3/6 663/3/6 693/3/6
f 693/3/6 663/3/6 694/3/6
f 664/3/6 645/3/6 695/3/6
f 695/3/6 645/3/6 696/3/6
f 646/3/6 665/3/6 697/3/6
f 697/3/6 665/3/6 698/3/6
f 666/3/6 647/3/6 699/3/6
f 699/3/6 647/3/6 700/3/6
f 648/3/6 667/3/6 701/3/6
f 701/3/6 667/3/6 702/3/6
f 668/3/6 649/3/6 703/3/6
f 703/3/6 649/3/6 704/3/6
f 650/3/6 669/3/6 705/3/6
f 705/3/6 669/3/6 706/3/6
f 670/3/6 651/3/6 707/3/6
f 707/3/6 651/3/6 708/3/6
f 652/3/6 671/3/6 709/3/6
f 709/3/6 671/3/6 710/3/6
f 672/3/6 653/3/6 711/3/6
f 711/3/6 653/3/6 712/3/6
f 654/3/6 673/3/6 713/3/6
f 713/3/6 673/3/6 714/3/6
f 674/3/6 634/3/6 715/3/6
f 715/3/6 634/3/6 716/3/6
f 717/1/6 718/1/6 721/1/6
f 721/1/6 718/1/6 722/1/6
f 719/1/6 720/1/6 723/1/6
f 723/1/6 720/1/6 724/1/6
f 725/5/6 726/5/6 766/5/6
f 766/5/6 726/5/6 767/5/6
f 745/5/6 746/5/6 768/5/6
f 768/5/6 746/5/6 769/5/6
f 727/5/6 728/5/6 770/5/6
f 770/5/6 728/5/6 771/5/6
f 747/5/6 748/5/6 772/5/6
f 772/5/6 748/5/6 773/5/6
f 729/5/6 730/5/6 774/5/6
f 774/5/6 730/5/6 775/5/6
f 749/5/6 750/5/6 776/5/6
f 776/5/6 750/5/6 777/5/6
f 731/5/6 732/5/6 778/5/6
f 778/5/6 732/5/6 779/5/6
f 751/5/6 752/5/6 780/5/6
f 780/5/6 752/5/6 781/5/6
f 733/5/6 734/5/6 782/5/6
f 782/5/6 734/5/6 783/5/6
f 753/5/6 754/5/6 784/5/6
f 784/5/6 754/5/6 785/5/6
f 735/5/6 736/5/6 786/5/6
f 786/5/6 736/5/6 787/5/6
f 755/5/6 756/5/6 788/5/6
f 788/5/6 756/5/6 789/5/6
f 737/5/6 738/5/6 790/5/6
f 790/5/6 738/5/6 791/5/6
f 757/5/6 758/5/6 792/5/6
f 792/5/6 758/5/6 793/5/6
f 739/5/6 740/5/6 794/5/6
f 794/5/6 740/5/6 795/5/6
f 759/5/6 760/5/6 796/5/6
f 796/5/6 760/5/6 797/5/6
f 741/5/6 742/5/6 798/5/6
f 798/5/6 742/5/6 799/5/6
f 761/5/6 762/5/6 800/5/6
f 800/5/6 762/5/6 801/5/6
f 743/5/6 744/5/6 802/5/6
f 802/5/6 744/5/6 803/5/6
f 763/5/6 764/5/6 804/5/6
f 804/5/6 764/5/6 805/5/6
f 802/1/6 803/1/6 807/1/6
f 805/1/6 806/1/6 807/1/6
f 804/1/6 805/1/6 807/1/6
f 803/1/6 804/1/6 807/1/6
f 768/1/6 769/1/6 807/1/6
f 801/1/6 802/1/6 807/1/6
f 772/1/6 773/1/6 807/1/6
f 799/1/6 800/1/6 807/1/6
f 776/1/6 777/1/6 807/1/6
f 797/1/6 798/1/6 807/1/6
f 780/1/6 781/1/6 807/1/6
f 795/1/6 796/1/6 807/1/6
f 784/1/6 785/1/6 807/1/6
f 793/1/6 794/1/6 807/1/6
f 788/1/6 789/1/6 807/1/6
f 791/1/6 792/1/6 807/1/6
f 792/1/6 793/1/6 807/1/6
f 789/1/6 790/1/6 807/1/6
f 796/1/6 797/1/6 807/1/6
f 787/1/6 788/1/6 807/1/6
f 800/1/6 801/1/6 807/1/6
f 785/1/6 786/1/6 807/1/6
f 766/1/6 767/1/6 807/1/6
f 783/1/6 784/1/6 807/1/6
f 770/1/6 771/1/6 807/1/6
f 781/1/6 782/1/6 807/1/6
f 774/1/6 775/1/6 807/1/6
f 779/1/6 780/1/6 807/1/6
f 778/1/6 779/1/6 807/1/6
f 777/1/6 778/1/6 807/1/6
f 782/1/6 783/1/6 807/1/6
f 775/1/6 776/1/6 807/1/6
f 786/1/6 787/1/6 807/1/6
f 773/1/6 774/1/6 807/1/6
f 790/1/6 791/1/6 807/1/6
f 771/1/6 772/1/6 807/1/6
f 794/1/6 795/1/6 807/1/6
f 769/1/6 770/1/6 807/1/6
f 798/1/6 799/1/6 807/1/6
f 767/1/6 768/1/6 807/1/6
f 765/1/6 766/1/6 807/1/6
f 807/1/6 806/1/6 808/1/6
f 809/1/6 810/1/6 813/1/6
f 813/1/6 810/1/6 814/1/6
f 811/1/6 812/1/6 815/1/6
f 815/1/6 812/1/6 816/1/6
f 817/1/6 818/1/6 819/1/6
f 819/1/6 818/1/6 820/1/6
f 821/1/6 822/1/6 825/1/6
f 825/1/6 822/1/6 826/1/6
f 823/1/6 824/1/6 827/1/6
f 827/1/6 824/1/6 828/1/6
f 829/2/6 830/2/6 833/2/6
f 833/2/6 830/2/6 834/2/6
f 831/2/6 832/2/6 835/2/6
f 835/2/6 832/2/6 836/2/6
f 837/1/6 838/1/6 841/1/6
f 841/1/6 838/1/6 842/1/6
f 839/1/6 840/1/6 843/1/6
f 843/1/6 840/1/6 844/1/6
f 845/3/6 846/3/6 847/3/6
f 847/3/6 846/3/6 848/3/6
f 849/2/6 850/2/6 851/2/6
f 851/2/6 850/2/6 852/2/6
f 853/1/6 854/1/6 855/1/6
f 855/1/6 854/1/6 856/1/6
