# MagicaVoxel @ Ephtracy

# group
g pontoon3

# material
mtllib pontoon3.mtl
usemtl palette

# normals
vn -1 0 0
vn 1 0 0
vn 0 0 1
vn 0 0 -1
vn 0 -1 0
vn 0 1 0

# texcoords
vt 0.228516 0.5
vt 0.232422 0.5

# verts
v -19 0 9.5
v -19 0 7.5
v -19 0 -7.5
v -19 0 -9.5
v -19 15 9.5
v -19 15 7.5
v -19 15 -7.5
v -19 15 -9.5
v -19 16 9.5
v -19 16 -9.5
v -16 15 9.5
v -16 15 7.5
v -16 15 -7.5
v -16 15 -9.5
v -16 16 9.5
v -16 16 -9.5
v -13 15 9.5
v -13 15 7.5
v -13 15 -7.5
v -13 15 -9.5
v -13 16 9.5
v -13 16 -9.5
v -10 15 9.5
v -10 15 7.5
v -10 15 -7.5
v -10 15 -9.5
v -10 16 9.5
v -10 16 -9.5
v -7 15 9.5
v -7 15 7.5
v -7 15 -7.5
v -7 15 -9.5
v -7 16 9.5
v -7 16 -9.5
v -4 15 9.5
v -4 15 7.5
v -4 15 -7.5
v -4 15 -9.5
v -4 16 9.5
v -4 16 -9.5
v -1 15 9.5
v -1 15 7.5
v -1 15 -7.5
v -1 15 -9.5
v -1 16 9.5
v -1 16 -9.5
v 2 15 9.5
v 2 15 7.5
v 2 15 -7.5
v 2 15 -9.5
v 2 16 9.5
v 2 16 -9.5
v 5 15 9.5
v 5 15 7.5
v 5 15 -7.5
v 5 15 -9.5
v 5 16 9.5
v 5 16 -9.5
v 8 15 9.5
v 8 15 7.5
v 8 15 -7.5
v 8 15 -9.5
v 8 16 9.5
v 8 16 -9.5
v 11 15 9.5
v 11 15 7.5
v 11 15 -7.5
v 11 15 -9.5
v 11 16 9.5
v 11 16 -9.5
v 14 15 9.5
v 14 15 7.5
v 14 15 -7.5
v 14 15 -9.5
v 14 16 9.5
v 14 16 -9.5
v 17 0 9.5
v 17 0 7.5
v 17 0 -7.5
v 17 0 -9.5
v 17 14 9.5
v 17 14 7.5
v 17 14 -7.5
v 17 14 -9.5
v 17 15 9.5
v 17 15 7.5
v 17 15 -7.5
v 17 15 -9.5
v 17 16 9.5
v 17 16 -9.5
v -17 0 9.5
v -17 0 7.5
v -17 0 -7.5
v -17 0 -9.5
v -17 14 9.5
v -17 14 7.5
v -17 14 -7.5
v -17 14 -9.5
v -17 15 9.5
v -17 15 7.5
v -17 15 -7.5
v -17 15 -9.5
v -17 16 9.5
v -17 16 -9.5
v -14 15 9.5
v -14 15 7.5
v -14 15 -7.5
v -14 15 -9.5
v -14 16 9.5
v -14 16 -9.5
v -11 15 9.5
v -11 15 7.5
v -11 15 -7.5
v -11 15 -9.5
v -11 16 9.5
v -11 16 -9.5
v -8 15 9.5
v -8 15 7.5
v -8 15 -7.5
v -8 15 -9.5
v -8 16 9.5
v -8 16 -9.5
v -5 15 9.5
v -5 15 7.5
v -5 15 -7.5
v -5 15 -9.5
v -5 16 9.5
v -5 16 -9.5
v -2 15 9.5
v -2 15 7.5
v -2 15 -7.5
v -2 15 -9.5
v -2 16 9.5
v -2 16 -9.5
v 1 15 9.5
v 1 15 7.5
v 1 15 -7.5
v 1 15 -9.5
v 1 16 9.5
v 1 16 -9.5
v 4 15 9.5
v 4 15 7.5
v 4 15 -7.5
v 4 15 -9.5
v 4 16 9.5
v 4 16 -9.5
v 7 15 9.5
v 7 15 7.5
v 7 15 -7.5
v 7 15 -9.5
v 7 16 9.5
v 7 16 -9.5
v 10 15 9.5
v 10 15 7.5
v 10 15 -7.5
v 10 15 -9.5
v 10 16 9.5
v 10 16 -9.5
v 13 15 9.5
v 13 15 7.5
v 13 15 -7.5
v 13 15 -9.5
v 13 16 9.5
v 13 16 -9.5
v 16 15 9.5
v 16 15 7.5
v 16 15 -7.5
v 16 15 -9.5
v 16 16 9.5
v 16 16 -9.5
v 19 0 9.5
v 19 0 7.5
v 19 0 -7.5
v 19 0 -9.5
v 19 15 9.5
v 19 15 7.5
v 19 15 -7.5
v 19 15 -9.5
v 19 16 9.5
v 19 16 -9.5
v -19 0 9.5
v -19 15 9.5
v -19 16 9.5
v -17 0 9.5
v -17 14 9.5
v -17 15 9.5
v -17 16 9.5
v -16 15 9.5
v -16 16 9.5
v -14 15 9.5
v -14 16 9.5
v -13 15 9.5
v -13 16 9.5
v -11 15 9.5
v -11 16 9.5
v -10 15 9.5
v -10 16 9.5
v -8 15 9.5
v -8 16 9.5
v -7 15 9.5
v -7 16 9.5
v -5 15 9.5
v -5 16 9.5
v -4 15 9.5
v -4 16 9.5
v -2 15 9.5
v -2 16 9.5
v -1 15 9.5
v -1 16 9.5
v 1 15 9.5
v 1 16 9.5
v 2 15 9.5
v 2 16 9.5
v 4 15 9.5
v 4 16 9.5
v 5 15 9.5
v 5 16 9.5
v 7 15 9.5
v 7 16 9.5
v 8 15 9.5
v 8 16 9.5
v 10 15 9.5
v 10 16 9.5
v 11 15 9.5
v 11 16 9.5
v 13 15 9.5
v 13 16 9.5
v 14 15 9.5
v 14 16 9.5
v 16 15 9.5
v 16 16 9.5
v 17 0 9.5
v 17 14 9.5
v 17 15 9.5
v 17 16 9.5
v 19 0 9.5
v 19 15 9.5
v 19 16 9.5
v -19 0 -7.5
v -19 15 -7.5
v -17 0 -7.5
v -17 14 -7.5
v -17 15 -7.5
v -16 15 -7.5
v -14 15 -7.5
v -13 15 -7.5
v -11 15 -7.5
v -10 15 -7.5
v -8 15 -7.5
v -7 15 -7.5
v -5 15 -7.5
v -4 15 -7.5
v -2 15 -7.5
v -1 15 -7.5
v 1 15 -7.5
v 2 15 -7.5
v 4 15 -7.5
v 5 15 -7.5
v 7 15 -7.5
v 8 15 -7.5
v 10 15 -7.5
v 11 15 -7.5
v 13 15 -7.5
v 14 15 -7.5
v 16 15 -7.5
v 17 0 -7.5
v 17 14 -7.5
v 17 15 -7.5
v 19 0 -7.5
v 19 15 -7.5
v -19 0 7.5
v -19 15 7.5
v -17 0 7.5
v -17 14 7.5
v -17 15 7.5
v -16 15 7.5
v -14 15 7.5
v -13 15 7.5
v -11 15 7.5
v -10 15 7.5
v -8 15 7.5
v -7 15 7.5
v -5 15 7.5
v -4 15 7.5
v -2 15 7.5
v -1 15 7.5
v 1 15 7.5
v 2 15 7.5
v 4 15 7.5
v 5 15 7.5
v 7 15 7.5
v 8 15 7.5
v 10 15 7.5
v 11 15 7.5
v 13 15 7.5
v 14 15 7.5
v 16 15 7.5
v 17 0 7.5
v 17 14 7.5
v 17 15 7.5
v 19 0 7.5
v 19 15 7.5
v -19 0 -9.5
v -19 15 -9.5
v -19 16 -9.5
v -17 0 -9.5
v -17 14 -9.5
v -17 15 -9.5
v -17 16 -9.5
v -16 15 -9.5
v -16 16 -9.5
v -14 15 -9.5
v -14 16 -9.5
v -13 15 -9.5
v -13 16 -9.5
v -11 15 -9.5
v -11 16 -9.5
v -10 15 -9.5
v -10 16 -9.5
v -8 15 -9.5
v -8 16 -9.5
v -7 15 -9.5
v -7 16 -9.5
v -5 15 -9.5
v -5 16 -9.5
v -4 15 -9.5
v -4 16 -9.5
v -2 15 -9.5
v -2 16 -9.5
v -1 15 -9.5
v -1 16 -9.5
v 1 15 -9.5
v 1 16 -9.5
v 2 15 -9.5
v 2 16 -9.5
v 4 15 -9.5
v 4 16 -9.5
v 5 15 -9.5
v 5 16 -9.5
v 7 15 -9.5
v 7 16 -9.5
v 8 15 -9.5
v 8 16 -9.5
v 10 15 -9.5
v 10 16 -9.5
v 11 15 -9.5
v 11 16 -9.5
v 13 15 -9.5
v 13 16 -9.5
v 14 15 -9.5
v 14 16 -9.5
v 16 15 -9.5
v 16 16 -9.5
v 17 0 -9.5
v 17 14 -9.5
v 17 15 -9.5
v 17 16 -9.5
v 19 0 -9.5
v 19 15 -9.5
v 19 16 -9.5
v -19 0 9.5
v -17 0 9.5
v 17 0 9.5
v 19 0 9.5
v -19 0 7.5
v -17 0 7.5
v 17 0 7.5
v 19 0 7.5
v -19 0 -7.5
v -17 0 -7.5
v 17 0 -7.5
v 19 0 -7.5
v -19 0 -9.5
v -17 0 -9.5
v 17 0 -9.5
v 19 0 -9.5
v -17 14 9.5
v 17 14 9.5
v -17 14 7.5
v 17 14 7.5
v -17 14 -7.5
v 17 14 -7.5
v -17 14 -9.5
v 17 14 -9.5
v -19 15 7.5
v -17 15 7.5
v -16 15 7.5
v -14 15 7.5
v -13 15 7.5
v -11 15 7.5
v -10 15 7.5
v -8 15 7.5
v -7 15 7.5
v -5 15 7.5
v -4 15 7.5
v -2 15 7.5
v -1 15 7.5
v 1 15 7.5
v 2 15 7.5
v 4 15 7.5
v 5 15 7.5
v 7 15 7.5
v 8 15 7.5
v 10 15 7.5
v 11 15 7.5
v 13 15 7.5
v 14 15 7.5
v 16 15 7.5
v 17 15 7.5
v 19 15 7.5
v -19 15 -7.5
v -17 15 -7.5
v -16 15 -7.5
v -14 15 -7.5
v -13 15 -7.5
v -11 15 -7.5
v -10 15 -7.5
v -8 15 -7.5
v -7 15 -7.5
v -5 15 -7.5
v -4 15 -7.5
v -2 15 -7.5
v -1 15 -7.5
v 1 15 -7.5
v 2 15 -7.5
v 4 15 -7.5
v 5 15 -7.5
v 7 15 -7.5
v 8 15 -7.5
v 10 15 -7.5
v 11 15 -7.5
v 13 15 -7.5
v 14 15 -7.5
v 16 15 -7.5
v 17 15 -7.5
v 19 15 -7.5
v -17 15 9.5
v -16 15 9.5
v -14 15 9.5
v -13 15 9.5
v -11 15 9.5
v -10 15 9.5
v -8 15 9.5
v -7 15 9.5
v -5 15 9.5
v -4 15 9.5
v -2 15 9.5
v -1 15 9.5
v 1 15 9.5
v 2 15 9.5
v 4 15 9.5
v 5 15 9.5
v 7 15 9.5
v 8 15 9.5
v 10 15 9.5
v 11 15 9.5
v 13 15 9.5
v 14 15 9.5
v 16 15 9.5
v 17 15 9.5
v -17 15 7.5
v -16 15 7.5
v -14 15 7.5
v -13 15 7.5
v -11 15 7.5
v -10 15 7.5
v -8 15 7.5
v -7 15 7.5
v -5 15 7.5
v -4 15 7.5
v -2 15 7.5
v -1 15 7.5
v 1 15 7.5
v 2 15 7.5
v 4 15 7.5
v 5 15 7.5
v 7 15 7.5
v 8 15 7.5
v 10 15 7.5
v 11 15 7.5
v 13 15 7.5
v 14 15 7.5
v 16 15 7.5
v 17 15 7.5
v -17 15 -7.5
v -16 15 -7.5
v -14 15 -7.5
v -13 15 -7.5
v -11 15 -7.5
v -10 15 -7.5
v -8 15 -7.5
v -7 15 -7.5
v -5 15 -7.5
v -4 15 -7.5
v -2 15 -7.5
v -1 15 -7.5
v 1 15 -7.5
v 2 15 -7.5
v 4 15 -7.5
v 5 15 -7.5
v 7 15 -7.5
v 8 15 -7.5
v 10 15 -7.5
v 11 15 -7.5
v 13 15 -7.5
v 14 15 -7.5
v 16 15 -7.5
v 17 15 -7.5
v -17 15 -9.5
v -16 15 -9.5
v -14 15 -9.5
v -13 15 -9.5
v -11 15 -9.5
v -10 15 -9.5
v -8 15 -9.5
v -7 15 -9.5
v -5 15 -9.5
v -4 15 -9.5
v -2 15 -9.5
v -1 15 -9.5
v 1 15 -9.5
v 2 15 -9.5
v 4 15 -9.5
v 5 15 -9.5
v 7 15 -9.5
v 8 15 -9.5
v 10 15 -9.5
v 11 15 -9.5
v 13 15 -9.5
v 14 15 -9.5
v 16 15 -9.5
v 17 15 -9.5
v -19 16 9.5
v -17 16 9.5
v -16 16 9.5
v -14 16 9.5
v -13 16 9.5
v -11 16 9.5
v -10 16 9.5
v -8 16 9.5
v -7 16 9.5
v -5 16 9.5
v -4 16 9.5
v -2 16 9.5
v -1 16 9.5
v 1 16 9.5
v 2 16 9.5
v 4 16 9.5
v 5 16 9.5
v 7 16 9.5
v 8 16 9.5
v 10 16 9.5
v 11 16 9.5
v 13 16 9.5
v 14 16 9.5
v 16 16 9.5
v 17 16 9.5
v 19 16 9.5
v -19 16 -9.5
v -17 16 -9.5
v -16 16 -9.5
v -14 16 -9.5
v -13 16 -9.5
v -11 16 -9.5
v -10 16 -9.5
v -8 16 -9.5
v -7 16 -9.5
v -5 16 -9.5
v -4 16 -9.5
v -2 16 -9.5
v -1 16 -9.5
v 1 16 -9.5
v 2 16 -9.5
v 4 16 -9.5
v 5 16 -9.5
v 7 16 -9.5
v 8 16 -9.5
v 10 16 -9.5
v 11 16 -9.5
v 13 16 -9.5
v 14 16 -9.5
v 16 16 -9.5
v 17 16 -9.5
v 19 16 -9.5

# faces
f 5/1/1 2/1/1 1/1/1
f 6/1/1 2/1/1 5/1/1
f 7/1/1 4/1/1 3/1/1
f 8/1/1 4/1/1 7/1/1
f 9/2/1 6/2/1 5/2/1
f 9/2/1 7/2/1 6/2/1
f 9/2/1 8/2/1 7/2/1
f 10/2/1 8/2/1 9/2/1
f 15/2/1 12/2/1 11/2/1
f 15/2/1 14/2/1 13/2/1
f 15/2/1 13/2/1 12/2/1
f 16/2/1 14/2/1 15/2/1
f 21/2/1 18/2/1 17/2/1
f 21/2/1 20/2/1 19/2/1
f 21/2/1 19/2/1 18/2/1
f 22/2/1 20/2/1 21/2/1
f 27/2/1 24/2/1 23/2/1
f 27/2/1 26/2/1 25/2/1
f 27/2/1 25/2/1 24/2/1
f 28/2/1 26/2/1 27/2/1
f 33/2/1 30/2/1 29/2/1
f 33/2/1 32/2/1 31/2/1
f 33/2/1 31/2/1 30/2/1
f 34/2/1 32/2/1 33/2/1
f 39/2/1 36/2/1 35/2/1
f 39/2/1 38/2/1 37/2/1
f 39/2/1 37/2/1 36/2/1
f 40/2/1 38/2/1 39/2/1
f 45/2/1 42/2/1 41/2/1
f 45/2/1 44/2/1 43/2/1
f 45/2/1 43/2/1 42/2/1
f 46/2/1 44/2/1 45/2/1
f 51/2/1 48/2/1 47/2/1
f 51/2/1 50/2/1 49/2/1
f 51/2/1 49/2/1 48/2/1
f 52/2/1 50/2/1 51/2/1
f 57/2/1 54/2/1 53/2/1
f 57/2/1 56/2/1 55/2/1
f 57/2/1 55/2/1 54/2/1
f 58/2/1 56/2/1 57/2/1
f 63/2/1 60/2/1 59/2/1
f 63/2/1 62/2/1 61/2/1
f 63/2/1 61/2/1 60/2/1
f 64/2/1 62/2/1 63/2/1
f 69/2/1 66/2/1 65/2/1
f 69/2/1 68/2/1 67/2/1
f 69/2/1 67/2/1 66/2/1
f 70/2/1 68/2/1 69/2/1
f 75/2/1 72/2/1 71/2/1
f 75/2/1 74/2/1 73/2/1
f 75/2/1 73/2/1 72/2/1
f 76/2/1 74/2/1 75/2/1
f 81/1/1 78/1/1 77/1/1
f 82/1/1 78/1/1 81/1/1
f 83/1/1 80/1/1 79/1/1
f 84/1/1 80/1/1 83/1/1
f 89/2/1 86/2/1 85/2/1
f 89/2/1 88/2/1 87/2/1
f 89/2/1 87/2/1 86/2/1
f 90/2/1 88/2/1 89/2/1
f 91/1/2 92/1/2 95/1/2
f 95/1/2 92/1/2 96/1/2
f 93/1/2 94/1/2 97/1/2
f 97/1/2 94/1/2 98/1/2
f 99/2/2 100/2/2 103/2/2
f 101/2/2 102/2/2 103/2/2
f 100/2/2 101/2/2 103/2/2
f 103/2/2 102/2/2 104/2/2
f 105/2/2 106/2/2 109/2/2
f 107/2/2 108/2/2 109/2/2
f 106/2/2 107/2/2 109/2/2
f 109/2/2 108/2/2 110/2/2
f 111/2/2 112/2/2 115/2/2
f 113/2/2 114/2/2 115/2/2
f 112/2/2 113/2/2 115/2/2
f 115/2/2 114/2/2 116/2/2
f 117/2/2 118/2/2 121/2/2
f 119/2/2 120/2/2 121/2/2
f 118/2/2 119/2/2 121/2/2
f 121/2/2 120/2/2 122/2/2
f 123/2/2 124/2/2 127/2/2
f 125/2/2 126/2/2 127/2/2
f 124/2/2 125/2/2 127/2/2
f 127/2/2 126/2/2 128/2/2
f 129/2/2 130/2/2 133/2/2
f 131/2/2 132/2/2 133/2/2
f 130/2/2 131/2/2 133/2/2
f 133/2/2 132/2/2 134/2/2
f 135/2/2 136/2/2 139/2/2
f 137/2/2 138/2/2 139/2/2
f 136/2/2 137/2/2 139/2/2
f 139/2/2 138/2/2 140/2/2
f 141/2/2 142/2/2 145/2/2
f 143/2/2 144/2/2 145/2/2
f 142/2/2 143/2/2 145/2/2
f 145/2/2 144/2/2 146/2/2
f 147/2/2 148/2/2 151/2/2
f 149/2/2 150/2/2 151/2/2
f 148/2/2 149/2/2 151/2/2
f 151/2/2 150/2/2 152/2/2
f 153/2/2 154/2/2 157/2/2
f 155/2/2 156/2/2 157/2/2
f 154/2/2 155/2/2 157/2/2
f 157/2/2 156/2/2 158/2/2
f 159/2/2 160/2/2 163/2/2
f 161/2/2 162/2/2 163/2/2
f 160/2/2 161/2/2 163/2/2
f 163/2/2 162/2/2 164/2/2
f 165/2/2 166/2/2 169/2/2
f 167/2/2 168/2/2 169/2/2
f 166/2/2 167/2/2 169/2/2
f 169/2/2 168/2/2 170/2/2
f 171/1/2 172/1/2 175/1/2
f 175/1/2 172/1/2 176/1/2
f 173/1/2 174/1/2 177/1/2
f 177/1/2 174/1/2 178/1/2
f 175/2/2 176/2/2 179/2/2
f 176/2/2 177/2/2 179/2/2
f 177/2/2 178/2/2 179/2/2
f 179/2/2 178/2/2 180/2/2
f 184/1/3 182/1/3 181/1/3
f 185/1/3 182/1/3 184/1/3
f 186/2/3 183/2/3 182/2/3
f 186/1/3 182/1/3 185/1/3
f 187/2/3 183/2/3 186/2/3
f 188/1/3 186/1/3 185/1/3
f 190/1/3 188/1/3 185/1/3
f 190/2/3 189/2/3 188/2/3
f 191/2/3 189/2/3 190/2/3
f 192/1/3 190/1/3 185/1/3
f 194/1/3 192/1/3 185/1/3
f 194/2/3 193/2/3 192/2/3
f 195/2/3 193/2/3 194/2/3
f 196/1/3 194/1/3 185/1/3
f 198/1/3 196/1/3 185/1/3
f 198/2/3 197/2/3 196/2/3
f 199/2/3 197/2/3 198/2/3
f 200/1/3 198/1/3 185/1/3
f 202/1/3 200/1/3 185/1/3
f 202/2/3 201/2/3 200/2/3
f 203/2/3 201/2/3 202/2/3
f 204/1/3 202/1/3 185/1/3
f 206/1/3 204/1/3 185/1/3
f 206/2/3 205/2/3 204/2/3
f 207/2/3 205/2/3 206/2/3
f 208/1/3 206/1/3 185/1/3
f 210/1/3 208/1/3 185/1/3
f 210/2/3 209/2/3 208/2/3
f 211/2/3 209/2/3 210/2/3
f 212/1/3 210/1/3 185/1/3
f 214/1/3 212/1/3 185/1/3
f 214/2/3 213/2/3 212/2/3
f 215/2/3 213/2/3 214/2/3
f 216/1/3 214/1/3 185/1/3
f 218/1/3 216/1/3 185/1/3
f 218/2/3 217/2/3 216/2/3
f 219/2/3 217/2/3 218/2/3
f 220/1/3 218/1/3 185/1/3
f 222/1/3 220/1/3 185/1/3
f 222/2/3 221/2/3 220/2/3
f 223/2/3 221/2/3 222/2/3
f 224/1/3 222/1/3 185/1/3
f 226/1/3 224/1/3 185/1/3
f 226/2/3 225/2/3 224/2/3
f 227/2/3 225/2/3 226/2/3
f 228/1/3 226/1/3 185/1/3
f 230/1/3 228/1/3 185/1/3
f 230/2/3 229/2/3 228/2/3
f 231/2/3 229/2/3 230/2/3
f 233/1/3 230/1/3 185/1/3
f 234/1/3 230/1/3 233/1/3
f 236/1/3 233/1/3 232/1/3
f 236/1/3 234/1/3 233/1/3
f 237/2/3 235/2/3 234/2/3
f 237/1/3 234/1/3 236/1/3
f 238/2/3 235/2/3 237/2/3
f 241/1/3 240/1/3 239/1/3
f 242/1/3 240/1/3 241/1/3
f 243/1/3 240/1/3 242/1/3
f 244/1/3 243/1/3 242/1/3
f 245/1/3 244/1/3 242/1/3
f 246/1/3 245/1/3 242/1/3
f 247/1/3 246/1/3 242/1/3
f 248/1/3 247/1/3 242/1/3
f 249/1/3 248/1/3 242/1/3
f 250/1/3 249/1/3 242/1/3
f 251/1/3 250/1/3 242/1/3
f 252/1/3 251/1/3 242/1/3
f 253/1/3 252/1/3 242/1/3
f 254/1/3 253/1/3 242/1/3
f 255/1/3 254/1/3 242/1/3
f 256/1/3 255/1/3 242/1/3
f 257/1/3 256/1/3 242/1/3
f 258/1/3 257/1/3 242/1/3
f 259/1/3 258/1/3 242/1/3
f 260/1/3 259/1/3 242/1/3
f 261/1/3 260/1/3 242/1/3
f 262/1/3 261/1/3 242/1/3
f 263/1/3 262/1/3 242/1/3
f 264/1/3 263/1/3 242/1/3
f 265/1/3 264/1/3 242/1/3
f 267/1/3 265/1/3 242/1/3
f 268/1/3 265/1/3 267/1/3
f 269/1/3 267/1/3 266/1/3
f 269/1/3 268/1/3 267/1/3
f 270/1/3 268/1/3 269/1/3
f 271/1/4 272/1/4 273/1/4
f 273/1/4 272/1/4 274/1/4
f 274/1/4 272/1/4 275/1/4
f 274/1/4 275/1/4 276/1/4
f 274/1/4 276/1/4 277/1/4
f 274/1/4 277/1/4 278/1/4
f 274/1/4 278/1/4 279/1/4
f 274/1/4 279/1/4 280/1/4
f 274/1/4 280/1/4 281/1/4
f 274/1/4 281/1/4 282/1/4
f 274/1/4 282/1/4 283/1/4
f 274/1/4 283/1/4 284/1/4
f 274/1/4 284/1/4 285/1/4
f 274/1/4 285/1/4 286/1/4
f 274/1/4 286/1/4 287/1/4
f 274/1/4 287/1/4 288/1/4
f 274/1/4 288/1/4 289/1/4
f 274/1/4 289/1/4 290/1/4
f 274/1/4 290/1/4 291/1/4
f 274/1/4 291/1/4 292/1/4
f 274/1/4 292/1/4 293/1/4
f 274/1/4 293/1/4 294/1/4
f 274/1/4 294/1/4 295/1/4
f 274/1/4 295/1/4 296/1/4
f 274/1/4 296/1/4 297/1/4
f 274/1/4 297/1/4 299/1/4
f 299/1/4 297/1/4 300/1/4
f 298/1/4 299/1/4 301/1/4
f 299/1/4 300/1/4 301/1/4
f 301/1/4 300/1/4 302/1/4
f 303/1/4 304/1/4 306/1/4
f 306/1/4 304/1/4 307/1/4
f 304/2/4 305/2/4 308/2/4
f 307/1/4 304/1/4 308/1/4
f 308/2/4 305/2/4 309/2/4
f 307/1/4 308/1/4 310/1/4
f 307/1/4 310/1/4 312/1/4
f 310/2/4 311/2/4 312/2/4
f 312/2/4 311/2/4 313/2/4
f 307/1/4 312/1/4 314/1/4
f 307/1/4 314/1/4 316/1/4
f 314/2/4 315/2/4 316/2/4
f 316/2/4 315/2/4 317/2/4
f 307/1/4 316/1/4 318/1/4
f 307/1/4 318/1/4 320/1/4
f 318/2/4 319/2/4 320/2/4
f 320/2/4 319/2/4 321/2/4
f 307/1/4 320/1/4 322/1/4
f 307/1/4 322/1/4 324/1/4
f 322/2/4 323/2/4 324/2/4
f 324/2/4 323/2/4 325/2/4
f 307/1/4 324/1/4 326/1/4
f 307/1/4 326/1/4 328/1/4
f 326/2/4 327/2/4 328/2/4
f 328/2/4 327/2/4 329/2/4
f 307/1/4 328/1/4 330/1/4
f 307/1/4 330/1/4 332/1/4
f 330/2/4 331/2/4 332/2/4
f 332/2/4 331/2/4 333/2/4
f 307/1/4 332/1/4 334/1/4
f 307/1/4 334/1/4 336/1/4
f 334/2/4 335/2/4 336/2/4
f 336/2/4 335/2/4 337/2/4
f 307/1/4 336/1/4 338/1/4
f 307/1/4 338/1/4 340/1/4
f 338/2/4 339/2/4 340/2/4
f 340/2/4 339/2/4 341/2/4
f 307/1/4 340/1/4 342/1/4
f 307/1/4 342/1/4 344/1/4
f 342/2/4 343/2/4 344/2/4
f 344/2/4 343/2/4 345/2/4
f 307/1/4 344/1/4 346/1/4
f 307/1/4 346/1/4 348/1/4
f 346/2/4 347/2/4 348/2/4
f 348/2/4 347/2/4 349/2/4
f 307/1/4 348/1/4 350/1/4
f 307/1/4 350/1/4 352/1/4
f 350/2/4 351/2/4 352/2/4
f 352/2/4 351/2/4 353/2/4
f 307/1/4 352/1/4 355/1/4
f 355/1/4 352/1/4 356/1/4
f 354/1/4 355/1/4 358/1/4
f 355/1/4 356/1/4 358/1/4
f 356/2/4 357/2/4 359/2/4
f 358/1/4 356/1/4 359/1/4
f 359/2/4 357/2/4 360/2/4
f 365/1/5 362/1/5 361/1/5
f 366/1/5 362/1/5 365/1/5
f 367/1/5 364/1/5 363/1/5
f 368/1/5 364/1/5 367/1/5
f 373/1/5 370/1/5 369/1/5
f 374/1/5 370/1/5 373/1/5
f 375/1/5 372/1/5 371/1/5
f 376/1/5 372/1/5 375/1/5
f 379/1/5 378/1/5 377/1/5
f 380/1/5 378/1/5 379/1/5
f 383/1/5 382/1/5 381/1/5
f 384/1/5 382/1/5 383/1/5
f 411/2/5 386/2/5 385/2/5
f 412/2/5 386/2/5 411/2/5
f 413/2/5 388/2/5 387/2/5
f 414/2/5 388/2/5 413/2/5
f 415/2/5 390/2/5 389/2/5
f 416/2/5 390/2/5 415/2/5
f 417/2/5 392/2/5 391/2/5
f 418/2/5 392/2/5 417/2/5
f 419/2/5 394/2/5 393/2/5
f 420/2/5 394/2/5 419/2/5
f 421/2/5 396/2/5 395/2/5
f 422/2/5 396/2/5 421/2/5
f 423/2/5 398/2/5 397/2/5
f 424/2/5 398/2/5 423/2/5
f 425/2/5 400/2/5 399/2/5
f 426/2/5 400/2/5 425/2/5
f 427/2/5 402/2/5 401/2/5
f 428/2/5 402/2/5 427/2/5
f 429/2/5 404/2/5 403/2/5
f 430/2/5 404/2/5 429/2/5
f 431/2/5 406/2/5 405/2/5
f 432/2/5 406/2/5 431/2/5
f 433/2/5 408/2/5 407/2/5
f 434/2/5 408/2/5 433/2/5
f 435/2/5 410/2/5 409/2/5
f 436/2/5 410/2/5 435/2/5
f 437/1/6 438/1/6 461/1/6
f 461/1/6 438/1/6 462/1/6
f 439/1/6 440/1/6 463/1/6
f 463/1/6 440/1/6 464/1/6
f 441/1/6 442/1/6 465/1/6
f 465/1/6 442/1/6 466/1/6
f 443/1/6 444/1/6 467/1/6
f 467/1/6 444/1/6 468/1/6
f 445/1/6 446/1/6 469/1/6
f 469/1/6 446/1/6 470/1/6
f 447/1/6 448/1/6 471/1/6
f 471/1/6 448/1/6 472/1/6
f 449/1/6 450/1/6 473/1/6
f 473/1/6 450/1/6 474/1/6
f 451/1/6 452/1/6 475/1/6
f 475/1/6 452/1/6 476/1/6
f 453/1/6 454/1/6 477/1/6
f 477/1/6 454/1/6 478/1/6
f 455/1/6 456/1/6 479/1/6
f 479/1/6 456/1/6 480/1/6
f 457/1/6 458/1/6 481/1/6
f 481/1/6 458/1/6 482/1/6
f 459/1/6 460/1/6 483/1/6
f 483/1/6 460/1/6 484/1/6
f 485/1/6 486/1/6 509/1/6
f 509/1/6 486/1/6 510/1/6
f 487/1/6 488/1/6 511/1/6
f 511/1/6 488/1/6 512/1/6
f 489/1/6 490/1/6 513/1/6
f 513/1/6 490/1/6 514/1/6
f 491/1/6 492/1/6 515/1/6
f 515/1/6 492/1/6 516/1/6
f 493/1/6 494/1/6 517/1/6
f 517/1/6 494/1/6 518/1/6
f 495/1/6 496/1/6 519/1/6
f 519/1/6 496/1/6 520/1/6
f 497/1/6 498/1/6 521/1/6
f 521/1/6 498/1/6 522/1/6
f 499/1/6 500/1/6 523/1/6
f 523/1/6 500/1/6 524/1/6
f 501/1/6 502/1/6 525/1/6
f 525/1/6 502/1/6 526/1/6
f 503/1/6 504/1/6 527/1/6
f 527/1/6 504/1/6 528/1/6
f 505/1/6 506/1/6 529/1/6
f 529/1/6 506/1/6 530/1/6
f 507/1/6 508/1/6 531/1/6
f 531/1/6 508/1/6 532/1/6
f 533/2/6 534/2/6 559/2/6
f 559/2/6 534/2/6 560/2/6
f 535/2/6 536/2/6 561/2/6
f 561/2/6 536/2/6 562/2/6
f 537/2/6 538/2/6 563/2/6
f 563/2/6 538/2/6 564/2/6
f 539/2/6 540/2/6 565/2/6
f 565/2/6 540/2/6 566/2/6
f 541/2/6 542/2/6 567/2/6
f 567/2/6 542/2/6 568/2/6
f 543/2/6 544/2/6 569/2/6
f 569/2/6 544/2/6 570/2/6
f 545/2/6 546/2/6 571/2/6
f 571/2/6 546/2/6 572/2/6
f 547/2/6 548/2/6 573/2/6
f 573/2/6 548/2/6 574/2/6
f 549/2/6 550/2/6 575/2/6
f 575/2/6 550/2/6 576/2/6
f 551/2/6 552/2/6 577/2/6
f 577/2/6 552/2/6 578/2/6
f 553/2/6 554/2/6 579/2/6
f 579/2/6 554/2/6 580/2/6
f 555/2/6 556/2/6 581/2/6
f 581/2/6 556/2/6 582/2/6
f 557/2/6 558/2/6 583/2/6
f 583/2/6 558/2/6 584/2/6
